<svg id="Слой_1" data-name="Слой 1" xmlns="http://www.w3.org/2000/svg" viewBox="0 0 500 500"><defs><style>.cls-1{fill:#4bb34b;}.cls-2{fill:#58bf58;}.cls-3,.cls-4{fill:#fff;}.cls-4{stroke:#4bb34b;stroke-miterlimit:10;stroke-width:10.6px;}</style></defs><path class="cls-1" d="M462.73,249.5c0,45.48-1,99.55-7.07,134.42-8.59,46-29.32,70.25-73.78,77.33-29.14,5-78.16,5.87-113.18,6-4.48,0-8.74,0-12.68,0h-7.56c-20.9,0-54.12,0-84.71-1.49-15.16-.74-29.68-1.85-41.73-3.5h0c-2.41-.34-4.75-.69-7-1.07-44-7.08-65.71-31.34-73.78-76.82-5.56-32.34-6.88-78.16-7.06-122.08q0-6.21,0-12.34c0-12.52.21-25.3.61-38,.19-6.61.43-13.18.74-19.67q.24-6,.58-12c.42-7.93.89-15.68,1.44-23.17q.44-6.3.93-12.34c.84-10.37,1.79-20.07,2.79-28.81,5.55-46,24.76-71.25,73.78-77.32,35.36-4.54,96.52-6.06,133.41-6.06,37.4,0,98,1,133.42,5.56,48.51,6.57,68.73,29.82,73.78,77.32.7,6.32,1.43,14.34,2.16,23.49.73,9,1.43,19,2.08,29.64.89,14.22,1.64,29.44,2.15,44.38.37,11.12.62,22.08.67,32.36C462.73,246.81,462.73,248.16,462.73,249.5Z"/><path class="cls-2" d="M115.24,233.73a5.8,5.8,0,0,0-6.88-4.47L97.2,231.64A5.8,5.8,0,1,0,99.63,243l11.16-2.38A5.8,5.8,0,0,0,115.24,233.73Zm33.55-7.16a5.8,5.8,0,0,0-6.89-4.46l-11.16,2.38a5.8,5.8,0,0,0,2.42,11.35l11.16-2.38A5.82,5.82,0,0,0,148.79,226.57Zm-67,14.29a5.81,5.81,0,0,0-6.89-4.46l-11.16,2.38a5.8,5.8,0,1,0,2.42,11.35l11.17-2.38A5.82,5.82,0,0,0,81.77,240.86Zm26.34-40.61a5.81,5.81,0,0,0-6.89-4.47l-11.15,2.38a5.8,5.8,0,1,0,2.41,11.35l11.16-2.38A5.8,5.8,0,0,0,108.11,200.25Zm33.54-7.15a5.8,5.8,0,0,0-6.88-4.47L123.61,191A5.8,5.8,0,1,0,126,202.36L137.18,200A5.8,5.8,0,0,0,141.65,193.1Zm-67,14.28a5.81,5.81,0,0,0-6.89-4.46L56.59,205.3A5.8,5.8,0,1,0,59,216.65l11.16-2.38A5.8,5.8,0,0,0,74.63,207.38Zm74.16,19.19a5.8,5.8,0,0,0-6.89-4.46l-11.16,2.38a5.8,5.8,0,0,0,2.42,11.35l11.16-2.38A5.82,5.82,0,0,0,148.79,226.57Zm-7.14-33.47a5.8,5.8,0,0,0-6.88-4.47L123.61,191A5.8,5.8,0,1,0,126,202.36L137.18,200A5.8,5.8,0,0,0,141.65,193.1Zm-33.29,36.16L97.2,231.64A5.8,5.8,0,1,0,99.63,243l11.16-2.38a5.8,5.8,0,0,0-2.43-11.35Zm-.25-29a5.81,5.81,0,0,0-6.89-4.47l-11.15,2.38a5.8,5.8,0,1,0,2.41,11.35l11.16-2.38A5.8,5.8,0,0,0,108.11,200.25ZM74.88,236.4l-11.16,2.38a5.8,5.8,0,1,0,2.42,11.35l11.17-2.38a5.8,5.8,0,1,0-2.43-11.35Zm-.25-29a5.81,5.81,0,0,0-6.89-4.46L56.59,205.3A5.8,5.8,0,1,0,59,216.65l11.16-2.38A5.8,5.8,0,0,0,74.63,207.38Zm103.21,18.67-16.63-78a28.72,28.72,0,0,0-34-22.08l-5.42,1.16-1.16-5.49a5.81,5.81,0,0,0-11.36,2.42l1.17,5.49L54.73,141.43l-1.16-5.49a5.81,5.81,0,0,0-11.36,2.42l1.17,5.49-4.9,1q-.49,6-.93,12.34a15.28,15.28,0,0,1,2.83-.88l5.43-1.15,2.35,11.06a5.81,5.81,0,1,0,11.36-2.42l-2.37-11.06,55.67-11.87L115.18,152a5.81,5.81,0,0,0,11.36-2.42l-2.37-11.06,5.42-1.16a17.1,17.1,0,0,1,20.27,13.15L151,155.9,36.11,180.4q-.33,5.92-.58,12l117.91-25.13,13.05,61.22a17.1,17.1,0,0,1-13.15,20.27l-89.21,19a17.1,17.1,0,0,1-20.27-13.15l-9.07-42.56c-.4,12.66-.61,25.44-.61,38q0,6.13,0,12.34a28.73,28.73,0,0,0,32.35,16.76l89.21-19A28.73,28.73,0,0,0,177.84,226.05Zm-51.55,5.32a5.78,5.78,0,0,0,6.87,4.47l11.16-2.38a5.8,5.8,0,1,0-2.42-11.35l-11.16,2.38A5.78,5.78,0,0,0,126.29,231.37Zm8.48-42.74L123.61,191A5.8,5.8,0,1,0,126,202.36L137.18,200a5.8,5.8,0,0,0-2.41-11.35Zm-42,49.9a5.81,5.81,0,0,0,6.9,4.46l11.16-2.38a5.8,5.8,0,0,0-2.43-11.35L97.2,231.64A5.82,5.82,0,0,0,92.73,238.53Zm8.49-42.75-11.15,2.38a5.8,5.8,0,1,0,2.41,11.35l11.16-2.38a5.8,5.8,0,1,0-2.42-11.35Zm-42,49.88a5.8,5.8,0,0,0,6.89,4.47l11.17-2.38a5.8,5.8,0,1,0-2.43-11.35l-11.16,2.38A5.81,5.81,0,0,0,59.25,245.66Zm8.49-42.74L56.59,205.3A5.8,5.8,0,1,0,59,216.65l11.16-2.38a5.8,5.8,0,1,0-2.42-11.35Z"/><path class="cls-2" d="M371.14,397.06A59.31,59.31,0,1,0,310,339.62,59.31,59.31,0,0,0,371.14,397.06Zm-3.35-107.78a48.52,48.52,0,1,1-47,50A48.52,48.52,0,0,1,367.79,289.28Z"/><path class="cls-2" d="M364,340.18l.94,30.1a5.39,5.39,0,1,0,10.78-.33l-1-32.34a5.37,5.37,0,0,0-1.69-3.76l-16.67-15.66a5.39,5.39,0,0,0-7.39,7.85Z"/><rect class="cls-2" x="388.85" y="73.78" width="19.86" height="8.77" rx="4.38" transform="translate(136.43 388.5) rotate(-60.88)"/><rect class="cls-2" x="404.96" y="90.01" width="8.77" height="26.94" rx="4.38" transform="translate(119.73 410.72) rotate(-60.88)"/><rect class="cls-2" x="367.09" y="68.92" width="8.77" height="26.94" rx="4.38" transform="translate(118.72 366.82) rotate(-60.88)"/><rect class="cls-2" x="371.82" y="104.35" width="19.86" height="8.77" rx="4.38" transform="translate(100.99 389.32) rotate(-60.88)"/><path class="cls-2" d="M191.17,414.3a6.83,6.83,0,1,0,2.78,9.05A6.7,6.7,0,0,0,191.17,414.3ZM238,437.91a6.83,6.83,0,1,0,2.78,9A6.68,6.68,0,0,0,238,437.91Zm-23.39-11.8a6.83,6.83,0,1,0,2.77,9A6.68,6.68,0,0,0,214.57,426.11ZM238,437.91a6.83,6.83,0,1,0,2.78,9A6.68,6.68,0,0,0,238,437.91Zm-23.39-11.8a6.83,6.83,0,1,0,2.77,9A6.68,6.68,0,0,0,214.57,426.11Zm-23.4-11.81a6.83,6.83,0,1,0,2.78,9.05A6.7,6.7,0,0,0,191.17,414.3ZM243,369.83c-33.1-16.7-74-2.32-91.35,32.15A71.93,71.93,0,0,0,143.88,437L123.57,458.1a5.63,5.63,0,0,0-1.57,4.22h0c12,1.65,26.57,2.76,41.73,3.5-.54-.81-1-1.63-1.53-2.46a5,5,0,0,0-3.65-2.49L138.34,458,153,442.74a5.64,5.64,0,0,0,1.58-4.32A60.75,60.75,0,0,1,161,406.7c14.65-29,49.22-41.18,77.1-27.13s38.61,49.11,24,78.12a60.83,60.83,0,0,1-6,9.61c3.94,0,8.2,0,12.68,0,.95-1.57,1.86-3.19,2.69-4.86C288.79,428,276.07,386.53,243,369.83Zm-5,68.08a6.83,6.83,0,1,0,2.78,9A6.68,6.68,0,0,0,238,437.91Zm-23.39-11.8a6.83,6.83,0,1,0,2.77,9A6.68,6.68,0,0,0,214.57,426.11Zm-23.4-11.81a6.83,6.83,0,1,0,2.78,9.05A6.7,6.7,0,0,0,191.17,414.3Z"/><path class="cls-2" d="M373.35,140h0c-5,4.82-5.44,12.42-1.08,16.89l20,20.55c4.35,4.47,12,4.18,16.9-.64h0c4.95-4.82,5.44-12.42,1.08-16.88l-20-20.56C385.9,134.93,378.29,135.22,373.35,140Z"/><path class="cls-2" d="M459.9,168.71l-4.51,4.4a13.17,13.17,0,0,1-9.14,3.81,10.77,10.77,0,0,1-7.77-3.17c-4.35-4.46-3.87-12.06,1.09-16.88l18.25-17.8C458.55,148,459.25,158.1,459.9,168.71Z"/><path class="cls-2" d="M387.93,207.18l-37.29,36.33c-4.95,4.82-5.43,12.42-1.08,16.89h0c4.35,4.46,12,4.18,16.9-.64l37.3-36.34c4.94-4.82,5.43-12.42,1.08-16.89h0C400.48,202.07,392.88,202.36,387.93,207.18Z"/><path class="cls-2" d="M462.72,245.45a10.65,10.65,0,0,1-7.28-3.16l-20-20.55c-4.35-4.47-3.86-12.07,1.08-16.89s12.56-5.11,16.9-.64l8.66,8.88C462.42,224.21,462.67,235.17,462.72,245.45Z"/><path id="path3801" class="cls-3" d="M248.46,84.27c-28.13,0-74.77,1.16-101.75,4.63-37.39,4.62-52,23.9-56.27,59-3.09,27-5.4,65.9-5.4,102.13s.78,75.54,5.4,102.52c6.17,34.69,22.74,53.19,56.27,58.58,27,4.63,76.31,4.63,101.75,4.63s74.77,0,101.75-4.63c33.91-5.39,49.72-23.9,56.27-59,4.63-26.59,5.4-67.83,5.4-102.52s-3.09-80.93-5.4-102.13c-3.85-36.23-19.27-54-56.27-59C323.24,85,277,84.27,248.46,84.27Zm114.47,37.39c7.32,3.08,20,22,16.95,42.39-14.25,11.18-31.21,19.66-47.4,22v131H381c0,20-3.08,36.23-6.55,42h-89V188.33h-62V290.47c0,51.26-28.91,76.69-65.91,76.69-10.39,0-22.74-1.15-33.53-4.23-5-6.56-7.32-26.59-7.71-51.26,24.67,11.95,57.82,17.34,60.51-21.2v-96c-37.38,4.24-51.26,30.45-64,47.81.39-23.51,1.56-44.69,2.7-59,25.44-27.39,54.35-40.5,110.61-40.5h80.56C326.31,143.24,345.2,135.92,362.93,121.66Z"/><rect class="cls-4" x="205.63" y="51.07" width="26" height="62.99" rx="13"/><rect class="cls-4" x="265.29" y="51.07" width="26" height="62.99" rx="13"/><rect class="cls-4" x="145.96" y="51.07" width="26" height="62.99" rx="13"/><rect class="cls-4" x="324.96" y="51.07" width="26" height="62.99" rx="13"/></svg>