<?xml version="1.0" encoding="utf-8"?>
<!-- Generator: Adobe Illustrator 26.0.1, SVG Export Plug-In . SVG Version: 6.00 Build 0)  -->
<svg version="1.1" id="Слой_1" xmlns="http://www.w3.org/2000/svg" xmlns:xlink="http://www.w3.org/1999/xlink" x="0px" y="0px"
	 viewBox="0 0 1000 1000" style="enable-background:new 0 0 1000 1000;" xml:space="preserve">
<style type="text/css">
	.st0{fill:#2DC13E;}
	.st1{fill:#37B34A;}
	.st2{fill-rule:evenodd;clip-rule:evenodd;fill:#37B34A;}
</style>
<path class="st0" d="M877.8,363.5V245.7c0-30.5-24.7-55.1-55.1-55.1H180.5c-30.5,0-55.1,24.7-55.1,55.1v117.7h752.4V363.5z"/>
<path class="st1" d="M890,672V245.7c0-37.2-30.3-67.4-67.4-67.4h-22.8v-19.7c0-23.3-19-42.4-42.4-42.4s-42.4,19-42.4,42.4v19.7H629
	v-19.7c0-23.3-19-42.4-42.4-42.4s-42.4,19-42.4,42.4v19.7h-86.1v-19.7c0-23.3-19-42.4-42.4-42.4c-23.3,0-42.4,19-42.4,42.4v19.7
	h-86.1v-19.7c0-23.3-19-42.4-42.4-42.4s-42.4,19-42.4,42.4v19.7h-22.8c-37.2,0-67.4,30.3-67.4,67.4v586.9
	c0,37.2,30.3,67.5,67.5,67.5h628.9l-1.2-8.1c-0.7-4.6-4.1-8.4-8.8-9.6c-7-1.7-13.6-4-19.9-7h-29.5l-11.1,8.1c-3-2.6-6-5.3-8.6-8.1
	H180.5c-23.7,0-43-19.4-43-43V375.7h727.9v323.6c2.8,1.3,5.5,2.8,8.1,4.5c4,2.5,9.1,2.3,12.9-0.5l3.5-2.5L890,672z M739.7,158.6
	c0-9.8,7.9-17.9,17.9-17.9s17.9,7.9,17.9,17.9v19.7h-35.6v-19.7H739.7z M569.1,158.6c0-9.8,7.9-17.9,17.9-17.9
	c9.8,0,17.9,7.9,17.9,17.9v19.7h-35.6v-19.7H569.1z M398.4,158.6c0-9.8,7.9-17.9,17.9-17.9c9.8,0,17.9,7.9,17.9,17.9v19.7h-35.6
	v-19.7H398.4z M227.8,158.6c0-9.8,7.9-17.9,17.9-17.9c9.8,0,17.9,7.9,17.9,17.9v19.7H228v-19.7H227.8z M865.5,351.3H137.6V245.7
	c0-23.7,19.2-42.9,42.9-42.9h82.9v19.7c0,9.8-7.9,17.9-17.9,17.9c-6.8,0-12.2,5.5-12.2,12.2c0,6.8,5.5,12.2,12.2,12.2
	c23.3,0,42.4-19,42.4-42.4v-19.7H434v19.7c0,9.8-7.9,17.9-17.9,17.9c-6.8,0-12.2,5.5-12.2,12.2c0,6.8,5.5,12.2,12.2,12.2
	c23.3,0,42.4-19,42.4-42.4v-19.7h146.1v19.7c0,9.8-7.9,17.9-17.9,17.9c-6.8,0-12.2,5.5-12.2,12.2c0,6.8,5.5,12.2,12.2,12.2
	c23.3,0,42.4-19,42.4-42.4v-19.7h146.1v19.7c0,9.8-7.9,17.9-17.9,17.9c-6.8,0-12.2,5.5-12.2,12.2c0,6.8,5.5,12.2,12.2,12.2
	c23.3,0,42.4-19,42.4-42.4v-19.7h22.8c23.7,0,43,19.2,43,42.9v105.6H865.5z"/>
<path class="st1" d="M611.3,758.4c-6.8,0-12.2,5.5-12.2,12.2s5.5,12.2,12.2,12.2h83.1c0-2,0.2-4,0.3-5.8l21.8-3.3
	c4.6-0.7,8.4-4.1,9.6-8.8c0.5-2.2,1.2-4.3,1.8-6.5H611.3V758.4z M787.7,663.2c-1.7-1-3.6-1.5-5.8-1.5H611.3
	c-6.8,0-12.2,5.5-12.2,12.2c0,6.8,5.5,12.2,12.2,12.2h170.6c6.8,0,12.2-5.5,12.2-12.2C794.2,669.4,791.7,665.2,787.7,663.2z
	 M781.9,565.1H611.3c-6.8,0-12.2,5.5-12.2,12.2c0,6.8,5.5,12.2,12.2,12.2h170.6c6.8,0,12.2-5.5,12.2-12.2S788.7,565.1,781.9,565.1z
	 M781.9,468.6H611.3c-6.8,0-12.2,5.5-12.2,12.2c0,6.8,5.5,12.2,12.2,12.2h170.6c6.8,0,12.2-5.5,12.2-12.2
	C794.2,474.1,788.7,468.6,781.9,468.6z M509.5,758.4h-15.9c-6.8,0-12.2,5.5-12.2,12.2s5.5,12.2,12.2,12.2h15.9
	c6.8,0,12.2-5.5,12.2-12.2S516.3,758.4,509.5,758.4z M374.9,758.4h-15.9c-6.8,0-12.2,5.5-12.2,12.2s5.5,12.2,12.2,12.2h15.9
	c6.8,0,12.2-5.5,12.2-12.2S381.7,758.4,374.9,758.4z M240.5,758.4h-15.9c-6.8,0-12.2,5.5-12.2,12.2s5.5,12.2,12.2,12.2h15.9
	c6.8,0,12.2-5.5,12.2-12.2S247.3,758.4,240.5,758.4z M509.5,661.7h-15.9c-6.8,0-12.2,5.5-12.2,12.2s5.5,12.2,12.2,12.2h15.9
	c6.8,0,12.2-5.5,12.2-12.2S516.3,661.7,509.5,661.7z M374.9,661.7h-15.9c-6.8,0-12.2,5.5-12.2,12.2s5.5,12.2,12.2,12.2h15.9
	c6.8,0,12.2-5.5,12.2-12.2S381.7,661.7,374.9,661.7z M240.5,661.7h-15.9c-6.8,0-12.2,5.5-12.2,12.2s5.5,12.2,12.2,12.2h15.9
	c6.8,0,12.2-5.5,12.2-12.2S247.3,661.7,240.5,661.7z M509.5,565.1h-15.9c-6.8,0-12.2,5.5-12.2,12.2c0,6.8,5.5,12.2,12.2,12.2h15.9
	c6.8,0,12.2-5.5,12.2-12.2S516.3,565.1,509.5,565.1z M374.9,468.6h-15.9c-6.8,0-12.2,5.5-12.2,12.2c0,6.8,5.5,12.2,12.2,12.2h15.9
	c6.8,0,12.2-5.5,12.2-12.2C387.2,474.1,381.7,468.6,374.9,468.6z M240.5,468.6h-15.9c-6.8,0-12.2,5.5-12.2,12.2
	c0,6.8,5.5,12.2,12.2,12.2h15.9c6.8,0,12.2-5.5,12.2-12.2C252.8,474.1,247.3,468.6,240.5,468.6z M374.9,565.1h-15.9
	c-6.8,0-12.2,5.5-12.2,12.2c0,6.8,5.5,12.2,12.2,12.2h15.9c6.8,0,12.2-5.5,12.2-12.2S381.7,565.1,374.9,565.1z M240.5,565.1h-15.9
	c-6.8,0-12.2,5.5-12.2,12.2c0,6.8,5.5,12.2,12.2,12.2h15.9c6.8,0,12.2-5.5,12.2-12.2C252.8,570.6,247.3,565.1,240.5,565.1z
	 M509.5,468.6h-15.9c-6.8,0-12.2,5.5-12.2,12.2c0,6.8,5.5,12.2,12.2,12.2h15.9c6.8,0,12.2-5.5,12.2-12.2
	C521.7,474.1,516.3,468.6,509.5,468.6z"/>
<path class="st2" d="M970.4,765.2c-0.8-5-4.6-8.9-9.8-9.8l-23-3.5c-2.3-7.6-5.5-15.1-9.3-22.2l13.7-18.7c3-4.1,3-9.8,0-13.7
	c-8.8-11.8-19-22.2-30.8-30.8c-4.1-3-9.6-3.1-13.7,0l-7.8,5.6l-11.1,8.1c-4.3-2.3-8.8-4.5-13.4-6.1c-2.8-1.2-5.8-2.2-8.8-3
	l-3.3-23.3c-0.8-5-4.8-8.9-9.8-9.8c-14.4-2.2-29.1-2.2-43.5,0c-5,0.8-8.9,4.6-9.8,9.8l-2.3,15.4l-1.2,7.8
	c-7.6,2.3-15.1,5.5-22.2,9.3l-18.7-13.7c-4.1-3-9.6-3-13.7,0c-7.9,6-15.2,12.6-21.8,19.9c-3.1,3.5-6.1,7.1-8.9,10.9
	c-3,4.1-3,9.6,0,13.7l13.7,18.7c-3.8,7.1-7,14.6-9.3,22.2l-23,3.5c-2.3,0.3-4.5,1.3-6,2.8c-2,1.8-3.3,4.1-3.6,7
	c-0.8,5.8-1.3,11.8-1.5,17.5c-0.3,8.6,0.3,17.4,1.5,26c0.7,5,4.6,8.9,9.8,9.8l23,3.5c2.3,7.8,5.5,15.2,9.3,22.2L701,863
	c-2.6,3.6-3,8.6-0.7,12.6c0.2,0.3,0.5,0.8,0.8,1.2c6.3,8.4,13.6,16.2,21.5,23.3c3,2.6,6.1,5.1,9.3,7.4c4.1,3,9.6,3,13.7,0l10.3-7.6
	l8.4-6.3c4.5,2.3,8.9,4.5,13.6,6.3c2.8,1.2,5.6,2,8.6,3l3.5,23c0.8,5,4.8,8.9,9.8,9.8c14.4,2.2,29.1,2.2,43.5,0
	c5-0.7,8.9-4.6,9.8-9.8l3.5-23c7.6-2.3,15.1-5.5,22.2-9.3l18.7,13.7c4.1,3,9.6,3,13.7,0c11.8-8.8,22-19,30.8-30.8
	c3-4.1,3-9.6,0-13.7l-13.7-18.7c3.8-7.1,7-14.6,9.3-22.2l23-3.5c5-0.8,8.9-4.8,9.8-9.8C972.6,794.3,972.6,779.6,970.4,765.2z
	 M948.6,797l-21.8,3.3c-4.6,0.7-8.4,4.1-9.6,8.8c-2.5,10.6-6.6,20.5-12.2,29.8c-2.5,4-2.3,9.1,0.5,12.9l13.1,17.7
	c-4.3,5.1-9.1,9.8-14.1,14.2l-17.7-13.1c-2-1.5-4.5-2.3-7-2.3c-2.2,0-4.3,0.7-6.1,1.8c-9.3,5.8-19.2,9.9-29.8,12.2
	c-4.6,1-8.1,4.8-8.8,9.6l-1.2,7.1l-2.3,14.7c-6.6,0.5-13.4,0.5-20,0l-2.2-13.7l-1.2-8.1c-0.7-4.6-4.1-8.4-8.8-9.6
	c-7-1.7-13.6-4-19.9-7c-3.3-1.7-6.6-3.5-9.8-5.3c-4-2.5-9.1-2.3-12.9,0.5l-6.6,5l-11.1,8.1c-3-2.6-6-5.3-8.6-8.1c-1.8-2-3.6-4-5.5-6
	l13.1-17.7c2.8-3.8,3-8.9,0.5-12.9c-5.8-9.1-9.9-19.2-12.2-29.8c-1-4.6-4.8-8.1-9.6-8.8l-21.8-3.3c-0.3-4.8-0.5-9.4-0.3-14.2
	c0-2,0.2-4,0.3-5.8l21.8-3.3c4.6-0.7,8.4-4.1,9.6-8.8c0.5-2.2,1.2-4.3,1.8-6.5c2.5-8.1,6-16.1,10.6-23.2c2.5-4,2.3-9.1-0.5-12.9
	l-13.1-17.7c4.3-5.1,9.1-9.8,14.1-14.1l17.7,13.1c3.8,2.8,8.9,3,12.9,0.5c9.1-5.8,19.2-9.9,29.8-12.4c4.6-1,8.1-4.8,8.8-9.6
	l3.3-21.7c6.6-0.5,13.4-0.5,20,0l3.3,21.8c0.7,4.6,4.1,8.4,8.8,9.6c7.6,1.8,14.9,4.5,21.7,7.8c2.8,1.3,5.5,2.8,8.1,4.5
	c4,2.5,9.1,2.3,12.9-0.5l3.5-2.5l14.2-10.6c5.1,4.3,9.8,9.1,14.1,14.1l-13.1,17.7c-2.8,3.8-3,8.9-0.5,12.9
	c5.6,9.1,9.9,19.2,12.2,29.8c1,4.6,4.8,8.1,9.6,8.8l21.8,3.3C949.1,783.7,949.1,790.3,948.6,797z"/>
<path class="st2" d="M890,782.7c-1.2-19.4-10.4-36.6-24.5-48.3c-11.9-9.9-27.1-15.9-43.9-15.9c-27.6,0-51.3,16.4-62.2,39.9
	c-3.5,7.6-5.6,15.7-6.1,24.5c0,1.3-0.2,2.8-0.2,4.1c0,37.7,30.6,68.5,68.5,68.5c16.4,0,31.4-5.8,43.2-15.4
	c14.4-11.8,24-29.1,25.2-48.8c0-1.5,0.2-2.8,0.2-4.3C890.2,785.5,890.2,784.1,890,782.7z M865.5,798.6
	c-5.1,19.5-22.8,33.8-43.9,33.8c-25,0-45.3-20.4-45.3-45.3c0-1.3,0-2.8,0.2-4.1c0.8-8.9,4.1-17.2,9.4-23.8
	c8.3-10.6,21.2-17.4,35.7-17.4c21,0,38.7,14.4,43.9,33.8c1,3.6,1.5,7.6,1.5,11.6S866.5,794.8,865.5,798.6z"/>
</svg>
