<svg id="Слой_1" data-name="Слой 1" xmlns="http://www.w3.org/2000/svg" viewBox="0 0 4473.19 572.97"><defs><style>.cls-1,.cls-11,.cls-8{fill:#fff;}.cls-2{fill:#f4f4f4;}.cls-3{fill:#e8e8e8;}.cls-4{fill:#efefef;}.cls-5{fill:#eaeaea;}.cls-6{fill:#e5e5e5;}.cls-7{fill:#ededed;}.cls-11,.cls-13,.cls-14,.cls-15,.cls-8{stroke:#4bb34b;}.cls-11,.cls-12,.cls-13,.cls-14,.cls-15,.cls-8{stroke-miterlimit:10;}.cls-8{stroke-width:3.24px;}.cls-12,.cls-14,.cls-15,.cls-9{fill:#4bb34b;}.cls-10{fill:#58bf58;}.cls-11{stroke-width:8.6px;}.cls-12{stroke:#000;}.cls-13{fill:none;stroke-width:3.92px;}.cls-14,.cls-15{stroke-width:1.08px;}.cls-15{font-size:57.81px;font-family:GolosText-Regular, Golos;letter-spacing:-0.03em;}.cls-16{letter-spacing:-0.05em;}.cls-17{letter-spacing:-0.04em;}</style></defs><rect class="cls-1" y="2.12" width="4463.19" height="570.86"/><path class="cls-2" d="M2146.32,238.35l-9.06-5.19,5.25-9.16a10.92,10.92,0,1,0-19-10.85l-5.25,9.16-93-53.24,5.25-9.17a10.92,10.92,0,0,0-19-10.85l-5.25,9.17-9-5.19a54.08,54.08,0,0,0-73.71,20L1849,303.36a54.07,54.07,0,0,0,20,73.71l149,85.32a54.07,54.07,0,0,0,73.71-20l74.58-130.29a54.07,54.07,0,0,0-20-73.71ZM1986.42,172l9.06,5.18-10.58,18.49a10.92,10.92,0,1,0,19,10.85L2014.44,188l93,53.24-10.58,18.49a10.92,10.92,0,0,0,19,10.85l10.58-18.49,9.06,5.19a32.2,32.2,0,0,1,11.93,43.89l-5.18,9.06L1937.34,193l5.19-9A32.19,32.19,0,0,1,1986.42,172Zm42.5,271.44-149-85.32A32.19,32.19,0,0,1,1868,314.22l58.54-102.28,204.88,117.28-58.55,102.27a32.2,32.2,0,0,1-43.9,11.94ZM1970.4,286.58a10.93,10.93,0,0,1-14.91,4.06L1936.85,280A10.92,10.92,0,1,1,1947.7,261l18.65,10.67A10.92,10.92,0,0,1,1970.4,286.58Zm112,64.1a10.92,10.92,0,0,1-14.91,4.05l-18.64-10.67a10.92,10.92,0,0,1,10.85-19l18.65,10.67A10.93,10.93,0,0,1,2082.37,350.68Zm-56-32.08a10.91,10.91,0,0,1-14.9,4L1992.78,312a10.92,10.92,0,0,1,10.85-19l18.65,10.67A10.93,10.93,0,0,1,2026.33,318.6Zm-87.95,23.92a10.92,10.92,0,0,1-14.9,4.05l-18.65-10.67a10.92,10.92,0,1,1,10.86-19l18.64,10.67A10.92,10.92,0,0,1,1938.38,342.52Zm112,64.09a10.91,10.91,0,0,1-14.9,4.05L2016.8,400a10.92,10.92,0,0,1,10.86-19l18.64,10.67A10.92,10.92,0,0,1,2050.35,406.61Zm-56-32.08a10.92,10.92,0,0,1-14.9,4.06l-18.65-10.68a10.92,10.92,0,0,1,10.86-19l18.64,10.68A10.91,10.91,0,0,1,1994.31,374.53Z"/><path class="cls-2" d="M2334.88,331.31A87.33,87.33,0,1,0,2436.82,401,87.33,87.33,0,0,0,2334.88,331.31Zm29.28,156.07A71.46,71.46,0,1,1,2421.22,404,71.46,71.46,0,0,1,2364.16,487.38Z"/><path class="cls-2" d="M2358.18,412.45,2350,368.86a7.94,7.94,0,1,0-15.6,2.93l8.78,46.82a8,8,0,0,0,3.32,5.09l27.81,19a7.94,7.94,0,0,0,9-13.11Z"/><g id="Arrow_Outline" data-name="Arrow Outline"><path class="cls-2" d="M2560.85,147.11l-13.57-8.24a4.57,4.57,0,0,0-4-.39h0a4.21,4.21,0,0,0-1,7.38l2.75,2a35.93,35.93,0,0,1-21.62-2.85,36.35,36.35,0,0,1-12.63-56.2,5.22,5.22,0,0,0-8-6.68,46.71,46.71,0,0,0,46.91,75.33l-1.27,5.15a4.22,4.22,0,0,0,5.54,5h0a4.58,4.58,0,0,0,2.77-2.85l5.06-15.05a2.19,2.19,0,0,0-1-2.58Z"/><path class="cls-2" d="M2558.65,69.56a46.94,46.94,0,0,0-30.66-3l1.27-5.14a4.22,4.22,0,0,0-5.54-5h0a4.6,4.6,0,0,0-2.78,2.85l-5.06,15a2.22,2.22,0,0,0,.95,2.58l13.57,8.24a4.6,4.6,0,0,0,4,.38h0a4.22,4.22,0,0,0,1-7.38l-2.75-2A36,36,0,0,1,2554.25,79a36.39,36.39,0,0,1,12.64,56.21,5.22,5.22,0,0,0,.67,7.35,5.62,5.62,0,0,0,1.14.72,5.23,5.23,0,0,0,6.21-1.4,46.8,46.8,0,0,0-16.26-72.34Z"/></g><path class="cls-2" d="M2642.53,260.36l-6.69.21-.21-6.77a7,7,0,0,0-14,.43l.21,6.77-68.74,2.11-.21-6.77a7,7,0,0,0-14,.43l.2,6.77-6.69.21a34.69,34.69,0,0,0-33.58,35.7l2.95,96.3a34.71,34.71,0,0,0,35.71,33.58L2647.62,426a34.71,34.71,0,0,0,33.58-35.71l-3-96.29a34.71,34.71,0,0,0-35.71-33.59Zm-109.72,17.4,6.69-.21.42,13.66a7,7,0,1,0,14-.43l-.42-13.66,68.74-2.11.42,13.66a7,7,0,1,0,14-.43l-.42-13.66,6.69-.2a20.67,20.67,0,0,1,21.27,20l.2,6.69L2513,305.72l-.21-6.7a20.66,20.66,0,0,1,20-21.26Zm114.37,134.17L2537,415.31a20.66,20.66,0,0,1-21.26-20l-2.32-75.59,151.41-4.65,2.32,75.59a20.65,20.65,0,0,1-20,21.26Zm-84.66-66.12a7,7,0,0,1-6.79,7.22l-13.78.42a7,7,0,0,1-.43-14l13.78-.43A7,7,0,0,1,2562.52,345.81Zm82.75-2.54a7,7,0,0,1-6.79,7.22l-13.78.42a7,7,0,0,1-.43-14l13.78-.42A7,7,0,0,1,2645.27,343.27Zm-41.41,1.27a7,7,0,0,1-6.79,7.22l-13.78.42a7,7,0,0,1-.43-14l13.78-.42A7,7,0,0,1,2603.86,344.54Zm-40.07,42.6a7,7,0,0,1-6.79,7.22l-13.78.43a7,7,0,0,1-.43-14l13.78-.42A7,7,0,0,1,2563.79,387.14Zm82.75-2.54a7,7,0,0,1-6.79,7.22l-13.78.43a7,7,0,0,1-.43-14l13.78-.43A7,7,0,0,1,2646.54,384.6Zm-41.41,1.27a7,7,0,0,1-6.8,7.23l-13.77.42a7,7,0,1,1-.43-14l13.77-.43A7,7,0,0,1,2605.13,385.87Z"/><path class="cls-3" d="M1415.93,573l-5-16.21a31.7,31.7,0,0,0-39.54-21l-5.84,1.79-1.81-5.92a6.41,6.41,0,0,0-12.25,3.75l1.82,5.92-60.06,18.39-1.81-5.92a6.4,6.4,0,0,0-12.24,3.75l1.81,5.92-5.85,1.79a31.53,31.53,0,0,0-13,7.74h35.13l-.32-1,60-18.39,3.66,11.94a6.4,6.4,0,0,0,12.24-3.75l-3.65-11.94,5.84-1.79a18.89,18.89,0,0,1,23.55,12.51l1.79,5.84L1378.9,573Z"/><path class="cls-2" d="M664.91,45.74l-8.7,1.86-1.88-8.81a9.32,9.32,0,0,0-18.23,3.89L638,51.49,548.57,70.55l-1.88-8.81a9.32,9.32,0,0,0-18.23,3.89l1.88,8.81-8.71,1.85A46.13,46.13,0,0,0,486.18,131l26.7,125.26a46.14,46.14,0,0,0,54.68,35.45l143.27-30.55a46.12,46.12,0,0,0,35.46-54.67L719.58,81.2a46.13,46.13,0,0,0-54.67-35.46ZM525.52,94.52l8.71-1.86L538,110.43a9.31,9.31,0,0,0,18.22-3.88l-3.79-17.77,89.42-19.07,3.79,17.77a9.31,9.31,0,0,0,18.22-3.88l-3.79-17.77L668.8,64a27.48,27.48,0,0,1,32.56,21.12l1.85,8.7-197,42-1.85-8.7a27.46,27.46,0,0,1,21.11-32.56ZM707,242.9,563.67,273.44a27.47,27.47,0,0,1-32.56-21.11l-21-98.32,197-42,21,98.32A27.47,27.47,0,0,1,707,242.9ZM580.52,176.48a9.33,9.33,0,0,1-7.17,11.06l-17.92,3.82a9.32,9.32,0,0,1-3.89-18.23l17.92-3.82A9.32,9.32,0,0,1,580.52,176.48Zm107.64-22.95A9.32,9.32,0,0,1,681,164.59l-17.92,3.82a9.32,9.32,0,0,1-3.89-18.23l17.93-3.82A9.32,9.32,0,0,1,688.16,153.53ZM634.29,165a9.32,9.32,0,0,1-7.17,11l-17.92,3.82a9.32,9.32,0,1,1-3.89-18.22l17.92-3.82A9.31,9.31,0,0,1,634.29,165ZM592,230.25a9.33,9.33,0,0,1-7.18,11.06l-17.92,3.82A9.32,9.32,0,0,1,563,226.9l17.92-3.82A9.33,9.33,0,0,1,592,230.25ZM699.63,207.3a9.33,9.33,0,0,1-7.17,11.06l-17.93,3.82A9.32,9.32,0,0,1,670.65,204l17.92-3.82A9.33,9.33,0,0,1,699.63,207.3Zm-53.88,11.49a9.3,9.3,0,0,1-7.17,11.05l-17.92,3.82a9.32,9.32,0,1,1-3.89-18.22l17.93-3.82A9.3,9.3,0,0,1,645.75,218.79Z"/><path class="cls-4" d="M201.54,110.81a7.62,7.62,0,0,0-8.37-6.78l-14.9,1.57a7.62,7.62,0,0,0,1.59,15.15l14.9-1.57A7.6,7.6,0,0,0,201.54,110.81Zm44.8-4.71A7.62,7.62,0,0,0,238,99.32l-14.9,1.57a7.62,7.62,0,1,0,1.6,15.15l14.9-1.57A7.62,7.62,0,0,0,246.34,106.1Zm-89.5,9.41a7.62,7.62,0,0,0-8.38-6.78l-14.9,1.57a7.62,7.62,0,1,0,1.6,15.15l14.9-1.56A7.62,7.62,0,0,0,156.84,115.51Zm40-49.41a7.62,7.62,0,0,0-8.37-6.78l-14.9,1.57a7.62,7.62,0,0,0,1.59,15.16l14.9-1.57A7.62,7.62,0,0,0,196.84,66.1Zm44.8-4.71a7.62,7.62,0,0,0-8.38-6.78l-14.9,1.57A7.62,7.62,0,1,0,220,71.33l14.91-1.56A7.62,7.62,0,0,0,241.64,61.39Zm-89.5,9.42A7.62,7.62,0,0,0,143.76,64l-14.9,1.56a7.62,7.62,0,0,0,1.59,15.16l14.91-1.57A7.62,7.62,0,0,0,152.14,70.81Zm94.2,35.29A7.62,7.62,0,0,0,238,99.32l-14.9,1.57a7.62,7.62,0,1,0,1.6,15.15l14.9-1.57A7.62,7.62,0,0,0,246.34,106.1ZM220,71.33l14.91-1.56a7.62,7.62,0,0,0-1.6-15.16l-14.9,1.57A7.62,7.62,0,1,0,220,71.33ZM193.17,104l-14.9,1.57a7.62,7.62,0,0,0,1.59,15.15l14.9-1.57A7.62,7.62,0,1,0,193.17,104Zm-18-28,14.9-1.57a7.62,7.62,0,0,0-1.59-15.16l-14.9,1.57a7.62,7.62,0,0,0,1.59,15.16Zm-26.7,32.68-14.9,1.57a7.62,7.62,0,1,0,1.6,15.15l14.9-1.56a7.62,7.62,0,0,0-1.6-15.16Zm-18-28,14.91-1.57A7.62,7.62,0,1,0,143.76,64l-14.9,1.56a7.62,7.62,0,0,0,1.59,15.16Zm153.9,28.67L273.4,5.28c-.11-1.07-.27-2.12-.47-3.16H257.22a22.42,22.42,0,0,1,1,4.75l.76,7.24L95.25,31.33l-.76-7.24A22.43,22.43,0,0,1,106,2.12H84.66a37.47,37.47,0,0,0-5.33,23.57l11,104.14a37.72,37.72,0,0,0,41.41,33.53l119.13-12.53A37.71,37.71,0,0,0,284.35,109.42Zm-35.12,26.25L130.1,148.2a22.46,22.46,0,0,1-24.66-20l-8.6-81.75L260.6,29.26,269.2,111A22.46,22.46,0,0,1,249.23,135.67ZM238,99.32l-14.9,1.57a7.62,7.62,0,1,0,1.6,15.15l14.9-1.57A7.62,7.62,0,1,0,238,99.32Zm-18-28,14.91-1.56a7.62,7.62,0,0,0-1.6-15.16l-14.9,1.57A7.62,7.62,0,1,0,220,71.33Zm1.17-60.51a7.62,7.62,0,0,0,6.78-8.38l0-.32H212.55l.2,1.92A7.62,7.62,0,0,0,221.12,10.82Zm-28,93.21-14.9,1.57a7.62,7.62,0,0,0,1.59,15.15l14.9-1.57A7.62,7.62,0,1,0,193.17,104Zm-18-28,14.9-1.57a7.62,7.62,0,0,0-1.59-15.16l-14.9,1.57a7.62,7.62,0,0,0,1.59,15.16Zm-26.7,32.68-14.9,1.57a7.62,7.62,0,1,0,1.6,15.15l14.9-1.56a7.62,7.62,0,0,0-1.6-15.16Zm-18-28,14.91-1.57A7.62,7.62,0,1,0,143.76,64l-14.9,1.56a7.62,7.62,0,0,0,1.59,15.16Zm1.17-60.52a7.62,7.62,0,0,0,6.78-8.38l-1-9.73H122.05l1.2,11.33A7.62,7.62,0,0,0,131.62,20.23Z"/><path class="cls-4" d="M1831.54,459.5A67.18,67.18,0,1,0,1762.7,573h50.91a67.19,67.19,0,0,0,17.93-113.48Zm-1.39,86.78a55,55,0,1,1-6.49-77.45A55,55,0,0,1,1830.15,546.28Z"/><path class="cls-4" d="M1794.47,512.81l22-26a6.11,6.11,0,1,0-9.33-7.89l-23.66,28a6.13,6.13,0,0,0-1.42,4.45l2.16,25.82a6.11,6.11,0,0,0,12.17-1Z"/><path class="cls-2" d="M1799.73,115.41a67.18,67.18,0,1,0-57.32,75.76A67.17,67.17,0,0,0,1799.73,115.41Zm-121,16.75a55,55,0,1,1,62,46.91A54.95,54.95,0,0,1,1678.75,132.16Z"/><path class="cls-2" d="M1736.53,130.33l33.79-4.68a6.11,6.11,0,1,0-1.67-12.1l-36.3,5a6.16,6.16,0,0,0-4,2.37l-15.63,20.66a6.11,6.11,0,0,0,9.74,7.37Z"/><path class="cls-5" d="M908.34,533.8A67.17,67.17,0,0,0,787.73,573H800a55,55,0,0,1,109.86,0h12.22A67,67,0,0,0,908.34,533.8Z"/><path class="cls-5" d="M861.41,573H823.54a6,6,0,0,1-.29-2.68A6.11,6.11,0,0,1,830,565l25.68,3.48a6.1,6.1,0,0,1,4,2.35Z"/><path class="cls-4" d="M476.7,2.12A71.11,71.11,0,0,1,411.35,51,71.07,71.07,0,0,1,341.61,2.12H325.17a87,87,0,0,0,86.67,64.69,86.84,86.84,0,0,0,81.3-64.69Z"/><path class="cls-4" d="M418.51,27.12a7.9,7.9,0,0,1-15.79.49l-.79-25.49h15.8Z"/><path class="cls-6" d="M1248.25,2.12a54.81,54.81,0,0,1-8.55,17.28A55,55,0,0,1,1162.85,31,54.71,54.71,0,0,1,1142.7,2.12h-12.65a66.85,66.85,0,0,0,25.55,38.75,67.24,67.24,0,0,0,93.93-14.22,66.88,66.88,0,0,0,11.34-24.53Z"/><path class="cls-6" d="M1229.87,12.16a6.11,6.11,0,0,1-8.54,1.29L1206,2.12h20.58l2,1.5A6.1,6.1,0,0,1,1229.87,12.16Z"/><rect class="cls-2" x="1103.74" y="154.39" width="32.21" height="14.22" rx="7.11" transform="translate(411.1 1043.44) rotate(-59.42)"/><rect class="cls-2" x="1128.81" y="181.13" width="14.22" height="43.69" rx="7.11" transform="translate(383.29 1077.66) rotate(-59.42)"/><rect class="cls-2" x="1068.3" y="145.38" width="14.22" height="43.69" rx="7.11" transform="translate(384.35 1008) rotate(-59.42)"/><rect class="cls-2" x="1074.88" y="203.24" width="32.21" height="14.22" rx="7.11" transform="matrix(0.51, -0.86, 0.86, 0.51, 354.88, 1042.59)"/><rect class="cls-4" x="1016.78" y="499.87" width="32.21" height="14.22" rx="7.11" transform="translate(501.19 1527.37) rotate(-88.62)"/><rect class="cls-4" x="1060.05" y="513.5" width="14.22" height="43.69" rx="7.11" transform="translate(506.27 1589.3) rotate(-88.62)"/><rect class="cls-4" x="989.78" y="511.81" width="14.22" height="43.69" rx="7.11" transform="translate(439.39 1517.41) rotate(-88.62)"/><path class="cls-4" d="M1038.84,554.88l-.43,18a.41.41,0,0,1,0,.11h-14.19a3.31,3.31,0,0,1,0-.45l.44-18a7.11,7.11,0,1,1,14.21.35Z"/><path class="cls-6" d="M2454.4,573h-16.73l-2.68-4.32a7.11,7.11,0,1,1,12.07-7.5Z"/><path class="cls-6" d="M2508.81,573h-25l15-9.3a7,7,0,0,1,3.73-1.06,7.09,7.09,0,0,1,6.33,10.36Z"/><rect class="cls-6" x="119.51" y="511.7" width="32.21" height="14.22" rx="7.11" transform="translate(-383.62 384.81) rotate(-60.88)"/><rect class="cls-6" x="145.63" y="538.02" width="14.22" height="43.69" rx="7.11" transform="translate(-410.69 420.85) rotate(-60.88)"/><rect class="cls-6" x="84.23" y="503.82" width="14.22" height="43.69" rx="7.11" transform="translate(-412.33 349.65) rotate(-60.88)"/><path class="cls-6" d="M118.59,564l-2.78,5H99.54l6.63-11.92A7.11,7.11,0,0,1,118.59,564Z"/><path class="cls-2" d="M948.08,5.25a76.32,76.32,0,0,0-67.91,113.28L869.88,148.9a6,6,0,0,0,7.38,7.62l30.68-9.37A76.31,76.31,0,1,0,948.08,5.25ZM946,145.92A64.14,64.14,0,0,1,912,135.65a6,6,0,0,0-5-.69l-22.14,6.76,7.43-21.93a6,6,0,0,0-.54-5A64.38,64.38,0,1,1,946,145.92Zm8.43-64.26A7.46,7.46,0,1,1,947,74.1,7.46,7.46,0,0,1,954.38,81.66Zm29.8.45a7.45,7.45,0,1,1-7.34-7.56A7.45,7.45,0,0,1,984.18,82.11Zm-59.61-.9a7.45,7.45,0,1,1-7.34-7.56A7.46,7.46,0,0,1,924.57,81.21Z"/><path class="cls-4" d="M786,319.36A52,52,0,0,0,801.46,408l8.24,20.24a4.06,4.06,0,0,0,7.2.64l11.64-18.51a52,52,0,1,0-42.58-91Zm61.62,73.46a43.62,43.62,0,0,1-22.06,9.83,4.1,4.1,0,0,0-2.88,1.87l-8.4,13.35-6-14.61a4.05,4.05,0,0,0-2.5-2.34,43.88,43.88,0,1,1,41.79-8.1Zm-24.3-36.88a5.08,5.08,0,1,1-7.16-.63A5.07,5.07,0,0,1,823.28,355.94Zm15.56-13.06a5.08,5.08,0,1,1-7.15-.62A5.09,5.09,0,0,1,838.84,342.88ZM807.71,369a5.08,5.08,0,1,1-7.15-.62A5.09,5.09,0,0,1,807.71,369Z"/><path class="cls-6" d="M1572,35.21a4.53,4.53,0,1,0-.56,6.38A4.52,4.52,0,0,0,1572,35.21Zm27.8-23.32a4.54,4.54,0,1,0-.56,6.39A4.53,4.53,0,0,0,1599.76,11.89Zm-13.9,11.66a4.54,4.54,0,1,0-.56,6.39A4.53,4.53,0,0,0,1585.86,23.55Zm13.9-11.66a4.54,4.54,0,1,0-.56,6.39A4.53,4.53,0,0,0,1599.76,11.89ZM1579.47,23a4.54,4.54,0,1,0,6.39.56A4.53,4.53,0,0,0,1579.47,23Zm-13.89,11.66a4.53,4.53,0,1,0,6.38.56A4.52,4.52,0,0,0,1565.58,34.65Zm56.36-32.53h-8.86a39.18,39.18,0,0,1-25.22,63.14,3.68,3.68,0,0,0-2.57,1.66l-7.5,11.93-5.31-13a3.61,3.61,0,0,0-2.24-2.08,39.2,39.2,0,0,1-18.56-61.6h-8.85a46.46,46.46,0,0,0,23.55,67.94l7.36,18.08a3.62,3.62,0,0,0,6.43.56l10.39-16.52a46.45,46.45,0,0,0,31.38-70.06ZM1599.2,18.28a4.54,4.54,0,1,0-6.39-.56A4.53,4.53,0,0,0,1599.2,18.28Zm-13.9,11.66a4.54,4.54,0,1,0-6.39-.56A4.53,4.53,0,0,0,1585.3,29.94Zm-13.9,11.65A4.53,4.53,0,1,0,1565,41,4.52,4.52,0,0,0,1571.4,41.59Z"/><path class="cls-4" d="M2253,138.85a46.44,46.44,0,0,0-23.22,76.94l-1.55,19.46a3.62,3.62,0,0,0,5.49,3.39l16.71-10.09a46.44,46.44,0,1,0,2.57-89.7Zm19.67,83.32a39.06,39.06,0,0,1-21.54-1,3.62,3.62,0,0,0-3,.33L2236,228.78l1.13-14.05a3.67,3.67,0,0,0-1.07-2.87,39.18,39.18,0,1,1,36.59,10.31ZM2268.05,183a4.54,4.54,0,1,1-5.46-3.37A4.53,4.53,0,0,1,2268.05,183Zm17.65-4.17a4.54,4.54,0,1,1-5.46-3.37A4.54,4.54,0,0,1,2285.7,178.83Zm-35.31,8.34a4.54,4.54,0,1,1-5.45-3.38A4.52,4.52,0,0,1,2250.39,187.17Z"/><path class="cls-6" d="M3052.43,107.59a46.44,46.44,0,0,0-67.29,44l-13.71,13.89a3.63,3.63,0,0,0,2,6.13l19.28,3a46.44,46.44,0,1,0,59.7-67ZM3013.86,184A39.15,39.15,0,0,1,2998,169.39a3.59,3.59,0,0,0-2.54-1.7l-13.92-2.19,9.9-10a3.62,3.62,0,0,0,1-2.88A39.18,39.18,0,1,1,3013.86,184Zm21.7-32.94a4.53,4.53,0,1,1-2-6.09A4.53,4.53,0,0,1,3035.56,151.09Zm16.2,8.17a4.53,4.53,0,1,1-2-6.09A4.53,4.53,0,0,1,3051.76,159.26Zm-32.39-16.34a4.53,4.53,0,1,1-2-6.09A4.53,4.53,0,0,1,3019.37,142.92Z"/><g id="Arrow_Outline-2" data-name="Arrow Outline"><path class="cls-7" d="M535.23,572.17,535,573H452c-1.65-1.17-3.26-2.4-4.82-3.71a77.53,77.53,0,0,1-9.84-109.19,8.66,8.66,0,0,1,13.31,11.07,60.35,60.35,0,0,0,21,93.27,59.67,59.67,0,0,0,35.86,4.71l-4.55-3.3a7,7,0,0,1,1.68-12.25h0a7.63,7.63,0,0,1,6.58.64l22.52,13.67A3.64,3.64,0,0,1,535.23,572.17Z"/><path class="cls-7" d="M530,439.21a77.85,77.85,0,0,0-50.87-4.95l2.1-8.54a7,7,0,0,0-5.08-8.48,6.91,6.91,0,0,0-4.1.21h0a7.63,7.63,0,0,0-4.61,4.74l-8.39,25a3.64,3.64,0,0,0,1.56,4.28l22.52,13.67a7.63,7.63,0,0,0,6.58.64h0a7,7,0,0,0,1.68-12.25l-4.56-3.31a59.7,59.7,0,0,1,35.87,4.72,60.35,60.35,0,0,1,21,93.27,8.65,8.65,0,0,0,1.12,12.19,8.89,8.89,0,0,0,1.89,1.2,8.66,8.66,0,0,0,10.3-2.32,77.68,77.68,0,0,0-27-120Z"/></g><g id="Arrow_Outline-3" data-name="Arrow Outline"><path class="cls-6" d="M299.1,314.61l-18.34-11.13a6.22,6.22,0,0,0-5.35-.52h0a5.69,5.69,0,0,0-1.37,10l3.71,2.69a48.5,48.5,0,0,1-29.19-3.84,49.12,49.12,0,0,1-23.82-65.26,49.62,49.62,0,0,1,6.75-10.66,7,7,0,0,0-10.83-9A63.1,63.1,0,0,0,284,328.6l-1.71,6.95a5.69,5.69,0,0,0,7.47,6.73h0a6.18,6.18,0,0,0,3.75-3.85l6.83-20.32a3,3,0,0,0-1.27-3.49Z"/><path class="cls-6" d="M296.11,209.87a63.35,63.35,0,0,0-41.4-4l1.71-7a5.7,5.7,0,0,0-7.48-6.73h0a6.2,6.2,0,0,0-3.75,3.85l-6.83,20.32a3,3,0,0,0,1.28,3.49L258,231a6.19,6.19,0,0,0,5.35.52h0a5.7,5.7,0,0,0,1.37-10L261,218.81a48.53,48.53,0,0,1,29.2,3.84,49.13,49.13,0,0,1,17.06,75.92,7,7,0,0,0,.91,9.92,7.13,7.13,0,0,0,1.55,1,7.05,7.05,0,0,0,8.38-1.89,63.19,63.19,0,0,0-22-97.71Z"/></g><rect class="cls-6" x="2153.45" y="30.78" width="32.21" height="14.22" rx="7.11" transform="translate(1470.38 2092.05) rotate(-72.2)"/><rect class="cls-6" x="2187.3" y="52.94" width="14.22" height="43.69" rx="7.11" transform="translate(1452.51 2141.33) rotate(-72.2)"/><rect class="cls-6" x="2120.38" y="31.46" width="14.22" height="43.69" rx="7.11" transform="translate(1426.49 2062.69) rotate(-72.2)"/><rect class="cls-6" x="2136.11" y="84.8" width="32.21" height="14.22" rx="7.11" transform="translate(1406.91 2113.05) rotate(-72.2)"/><rect class="cls-6" x="2229.19" y="27.72" width="20.17" height="8.9" rx="4.45" transform="translate(1648.48 2192.35) rotate(-75.53)"/><rect class="cls-6" x="2217.95" y="-3.67" width="8.9" height="27.36" rx="4.45" transform="translate(1657.28 2159.38) rotate(-75.53)"/><rect class="cls-6" x="2260.56" y="7.33" width="8.9" height="27.36" rx="4.45" transform="translate(1678.59 2208.9) rotate(-75.53)"/><path class="cls-6" d="M2251.63,2.12l-.58,2.23a4.45,4.45,0,1,1-8.62-2.23Z"/><rect class="cls-6" x="388.65" y="214.44" width="19.86" height="8.77" rx="4.38" transform="translate(13.45 460.54) rotate(-60.88)"/><rect class="cls-6" x="404.76" y="230.67" width="8.77" height="26.94" rx="4.38" transform="translate(-3.24 482.76) rotate(-60.88)"/><rect class="cls-6" x="366.9" y="209.57" width="8.77" height="26.94" rx="4.38" transform="translate(-4.25 438.85) rotate(-60.88)"/><rect class="cls-6" x="371.63" y="245" width="19.86" height="8.77" rx="4.38" transform="translate(-21.99 461.36) rotate(-60.88)"/><path class="cls-6" d="M795.36,2.12a44.3,44.3,0,0,1-13,14.66,44.53,44.53,0,0,1-62.18-10,46.08,46.08,0,0,1-3-4.66h-11a54.64,54.64,0,0,0,5.92,10.45,54.44,54.44,0,0,0,76,12.23A54.15,54.15,0,0,0,806.35,2.12Z"/><path class="cls-6" d="M735.11,2.12a4.94,4.94,0,0,1-5.71,0Z"/><rect class="cls-7" x="2895.07" y="437.78" width="53.3" height="23.52" rx="11.76" transform="translate(1746.8 3162.12) rotate(-75.33)"/><rect class="cls-7" x="2954.34" y="472.1" width="23.52" height="72.29" rx="11.76" transform="translate(1723.16 3248.9) rotate(-75.33)"/><rect class="cls-7" x="2841.84" y="442.65" width="23.52" height="72.29" rx="11.76" transform="translate(1667.65 3118.07) rotate(-75.33)"/><rect class="cls-7" x="2871.3" y="528.58" width="53.3" height="23.52" rx="11.76" transform="translate(1641.21 3206.93) rotate(-75.33)"/><path class="cls-8" d="M2298.34,415.48a63.06,63.06,0,0,0-27,6,33.53,33.53,0,1,0-35.08,44.3,64.06,64.06,0,0,0-1.36,13.08,63.41,63.41,0,1,0,63.41-63.4Z"/><path class="cls-9" d="M522.31,279.52c0,36.9-.82,80.77-5.74,109.06-7,37.3-23.79,57-59.86,62.74-23.64,4-63.41,4.76-91.82,4.89H348.47c-17,0-43.91,0-68.73-1.21-12.3-.6-24.08-1.5-33.86-2.84h0c-2-.27-3.86-.56-5.65-.86-35.67-5.75-53.3-25.43-59.86-62.33-4.5-26.24-5.57-63.41-5.72-99q0-5,0-10c0-10.15.17-20.52.49-30.79.16-5.37.35-10.7.6-16,.13-3.27.3-6.52.47-9.72.34-6.44.73-12.72,1.16-18.8q.36-5.11.77-10c.68-8.42,1.44-16.29,2.25-23.38,4.51-37.29,20.09-57.8,59.86-62.73,28.7-3.68,78.31-4.91,108.25-4.91,30.33,0,79.54.82,108.24,4.51,39.36,5.33,55.76,24.19,59.86,62.73.56,5.13,1.16,11.63,1.75,19.06.59,7.27,1.17,15.44,1.69,24,.72,11.54,1.32,23.89,1.74,36,.31,9,.51,17.91.55,26.25C522.31,277.34,522.31,278.43,522.31,279.52Z"/><path class="cls-10" d="M280.38,266.73a4.7,4.7,0,0,0-5.58-3.63L265.75,265a4.71,4.71,0,1,0,2,9.21l9.06-1.93A4.71,4.71,0,0,0,280.38,266.73Zm27.22-5.81A4.71,4.71,0,0,0,302,257.3L293,259.23a4.71,4.71,0,0,0,2,9.21l9.06-1.93A4.72,4.72,0,0,0,307.6,260.92Zm-54.38,11.59a4.7,4.7,0,0,0-5.58-3.62l-9.06,1.93a4.71,4.71,0,0,0,2,9.21l9-1.93A4.71,4.71,0,0,0,253.22,272.51Zm21.37-32.95a4.69,4.69,0,0,0-5.58-3.62L260,237.87a4.71,4.71,0,1,0,2,9.21l9.05-1.94A4.7,4.7,0,0,0,274.59,239.56Zm27.22-5.8a4.71,4.71,0,0,0-5.59-3.63l-9.05,1.94a4.7,4.7,0,1,0,2,9.2l9.05-1.93A4.7,4.7,0,0,0,301.81,233.76Zm-54.38,11.59a4.71,4.71,0,0,0-5.58-3.62l-9.06,1.93a4.71,4.71,0,0,0,2,9.21l9.05-1.93A4.72,4.72,0,0,0,247.43,245.35Zm60.17,15.57A4.71,4.71,0,0,0,302,257.3L293,259.23a4.71,4.71,0,0,0,2,9.21l9.06-1.93A4.72,4.72,0,0,0,307.6,260.92Zm-5.79-27.16a4.71,4.71,0,0,0-5.59-3.63l-9.05,1.94a4.7,4.7,0,1,0,2,9.2l9.05-1.93A4.7,4.7,0,0,0,301.81,233.76Zm-27,29.34L265.75,265a4.71,4.71,0,1,0,2,9.21l9.06-1.93a4.71,4.71,0,0,0-2-9.21Zm-.21-23.54a4.69,4.69,0,0,0-5.58-3.62L260,237.87a4.71,4.71,0,1,0,2,9.21l9.05-1.94A4.7,4.7,0,0,0,274.59,239.56Zm-26.95,29.33-9.06,1.93a4.71,4.71,0,0,0,2,9.21l9-1.93a4.71,4.71,0,0,0-2-9.21Zm-.21-23.54a4.71,4.71,0,0,0-5.58-3.62l-9.06,1.93a4.71,4.71,0,0,0,2,9.21l9.05-1.93A4.72,4.72,0,0,0,247.43,245.35Zm83.74,15.14-13.49-63.27a23.31,23.31,0,0,0-27.62-17.91l-4.39.94-.95-4.46a4.71,4.71,0,1,0-9.21,2l.95,4.45-45.17,9.63-.95-4.45a4.71,4.71,0,0,0-9.21,2l1,4.45-4,.85q-.41,4.89-.77,10a12.64,12.64,0,0,1,2.31-.71l4.4-.94,1.91,9a4.71,4.71,0,0,0,9.21-2l-1.92-9,45.17-9.63,1.91,9a4.71,4.71,0,1,0,9.21-2l-1.91-9,4.4-1a13.87,13.87,0,0,1,16.44,10.67l.94,4.4-93.23,19.88c-.17,3.2-.34,6.45-.47,9.72l95.67-20.39L322,262.46a13.87,13.87,0,0,1-10.67,16.44l-72.37,15.43a13.87,13.87,0,0,1-16.45-10.66l-7.36-34.53c-.32,10.27-.49,20.64-.49,30.79q0,5,0,10a23.3,23.3,0,0,0,26.24,13.59l72.38-15.43A23.3,23.3,0,0,0,331.17,260.49Zm-41.83,4.32a4.7,4.7,0,0,0,5.58,3.63l9.06-1.93a4.71,4.71,0,0,0-2-9.21L293,259.23A4.7,4.7,0,0,0,289.34,264.81Zm6.88-34.68-9.05,1.94a4.7,4.7,0,1,0,2,9.2l9.05-1.93a4.71,4.71,0,1,0-2-9.21Zm-34.1,40.49a4.71,4.71,0,0,0,5.59,3.62l9.06-1.93a4.71,4.71,0,0,0-2-9.21L265.75,265A4.71,4.71,0,0,0,262.12,270.62ZM269,235.94,260,237.87a4.71,4.71,0,1,0,2,9.21l9.05-1.94a4.7,4.7,0,0,0-2-9.2ZM235,276.4a4.71,4.71,0,0,0,5.59,3.63l9-1.93a4.71,4.71,0,0,0-2-9.21l-9.06,1.93A4.7,4.7,0,0,0,235,276.4Zm6.89-34.67-9.06,1.93a4.71,4.71,0,0,0,2,9.21l9.05-1.93a4.71,4.71,0,0,0-2-9.21Z"/><path class="cls-10" d="M448,399.24a48.12,48.12,0,1,0-49.59-46.6A48.1,48.1,0,0,0,448,399.24Zm-2.71-87.45a39.37,39.37,0,1,1-38.13,40.58A39.37,39.37,0,0,1,445.28,311.79Z"/><path class="cls-10" d="M442.18,353.09l.76,24.43a4.38,4.38,0,0,0,8.75-.27L450.87,351a4.36,4.36,0,0,0-1.38-3.05L436,335.25a4.37,4.37,0,0,0-6,6.37Z"/><rect class="cls-10" x="462.36" y="136.96" width="16.12" height="7.11" rx="3.56" transform="translate(118.74 483.1) rotate(-60.88)"/><rect class="cls-10" x="475.43" y="150.13" width="7.11" height="21.86" rx="3.56" transform="translate(105.19 501.13) rotate(-60.88)"/><rect class="cls-10" x="444.71" y="133.02" width="7.11" height="21.86" rx="3.56" transform="translate(104.37 465.5) rotate(-60.88)"/><rect class="cls-10" x="448.55" y="161.76" width="16.12" height="7.11" rx="3.56" transform="translate(89.98 483.76) rotate(-60.88)"/><path class="cls-10" d="M302,413.22a5.54,5.54,0,1,0,2.25,7.35A5.45,5.45,0,0,0,302,413.22Zm38,19.16a5.54,5.54,0,1,0,2.25,7.33A5.43,5.43,0,0,0,340,432.38Zm-19-9.57a5.54,5.54,0,1,0,2.25,7.33A5.42,5.42,0,0,0,321,422.81Zm19,9.57a5.54,5.54,0,1,0,2.25,7.33A5.43,5.43,0,0,0,340,432.38Zm-19-9.57a5.54,5.54,0,1,0,2.25,7.33A5.42,5.42,0,0,0,321,422.81Zm-19-9.59a5.54,5.54,0,1,0,2.25,7.35A5.45,5.45,0,0,0,302,413.22Zm42-36.07c-26.86-13.55-60-1.89-74.12,26.08a58.29,58.29,0,0,0-6.27,28.44l-16.48,17.09a4.59,4.59,0,0,0-1.27,3.42h0c9.78,1.34,21.56,2.24,33.86,2.84-.44-.65-.84-1.32-1.24-2a4.07,4.07,0,0,0-3-2l-16.41-2.37L271,436.3a4.53,4.53,0,0,0,1.27-3.51,49.29,49.29,0,0,1,5.2-25.73c11.87-23.54,39.93-33.41,62.54-22s31.33,39.84,19.46,63.38a48.54,48.54,0,0,1-4.89,7.79h10.3q1.16-1.92,2.18-3.94C381.18,424.3,370.87,390.69,344,377.15ZM340,432.38a5.54,5.54,0,1,0,2.25,7.33A5.43,5.43,0,0,0,340,432.38Zm-19-9.57a5.54,5.54,0,1,0,2.25,7.33A5.42,5.42,0,0,0,321,422.81Zm-19-9.59a5.54,5.54,0,1,0,2.25,7.35A5.45,5.45,0,0,0,302,413.22Z"/><path class="cls-10" d="M449.79,190.72h0c-4,3.91-4.41,10.07-.88,13.7l16.25,16.68c3.53,3.62,9.7,3.38,13.72-.53h0c4-3.91,4.4-10.07.87-13.69L463.5,190.2C460,186.57,453.8,186.81,449.79,190.72Z"/><path class="cls-10" d="M520,214l-3.66,3.57a10.66,10.66,0,0,1-7.41,3.09,8.73,8.73,0,0,1-6.31-2.57c-3.53-3.62-3.14-9.78.88-13.69l14.81-14.44C518.91,197.2,519.49,205.37,520,214Z"/><path class="cls-10" d="M461.62,245.19l-30.26,29.48c-4,3.91-4.41,10.07-.87,13.7h0c3.53,3.62,9.7,3.38,13.71-.53l30.26-29.48c4-3.91,4.41-10.07.87-13.7h0C471.8,241,465.63,241.28,461.62,245.19Z"/><path class="cls-10" d="M522.3,276.23a8.69,8.69,0,0,1-5.91-2.56L500.14,257c-3.53-3.63-3.14-9.8.88-13.71s10.18-4.14,13.71-.51l7,7.2C522.06,259,522.26,267.89,522.3,276.23Z"/><path id="path3801" class="cls-1" d="M348.46,145.47c-22.82,0-60.66.94-82.55,3.75-30.33,3.75-42.21,19.4-45.65,47.85a790.18,790.18,0,0,0-4.38,82.86c0,29.4.63,61.29,4.38,83.17,5,28.15,18.45,43.16,45.65,47.54,21.89,3.75,61.92,3.75,82.55,3.75s60.67,0,82.55-3.75c27.52-4.38,40.34-19.4,45.66-47.85,3.75-21.57,4.38-55,4.38-83.18s-2.5-65.66-4.38-82.86C473.54,167.36,461,153,431,148.91,409.13,146.1,371.6,145.47,348.46,145.47Zm92.87,30.33c5.94,2.5,16.26,17.82,13.76,34.4-11.57,9.06-25.33,16-38.46,17.82V334.34H456c0,16.26-2.5,29.39-5.32,34.08H378.48V229.9H328.14v82.86c0,41.59-23.45,62.23-53.47,62.23a103.24,103.24,0,0,1-27.21-3.44c-4.06-5.32-5.94-21.58-6.25-41.59,20,9.7,46.91,14.07,49.09-17.2V234.9c-30.33,3.44-41.59,24.7-51.91,38.79.32-19.07,1.27-36.26,2.19-47.84C261.22,203.63,284.67,193,330.33,193h65.35C411.63,193.31,427,187.37,441.33,175.8Z"/><rect class="cls-11" x="313.71" y="118.53" width="21.09" height="51.11" rx="10.55"/><rect class="cls-11" x="362.12" y="118.53" width="21.09" height="51.11" rx="10.55"/><rect class="cls-11" x="265.3" y="118.53" width="21.09" height="51.11" rx="10.55"/><rect class="cls-11" x="410.53" y="118.53" width="21.09" height="51.11" rx="10.55"/><rect class="cls-12" x="3157.73" y="178.61" width="1151.81" height="178.33" rx="48.02"/><path class="cls-1" d="M3564.34,230.12a3.13,3.13,0,0,1-2.33-.92,3.18,3.18,0,0,1-.89-2.3,3.3,3.3,0,0,1,.89-2.39,3.13,3.13,0,0,1,2.33-.92h49.59a3.12,3.12,0,0,1,2.33.92,3.27,3.27,0,0,1,.9,2.39,3.15,3.15,0,0,1-.9,2.3,3.12,3.12,0,0,1-2.33.92Zm24.75,65.32a3.29,3.29,0,0,1-2.46-1.06,3.48,3.48,0,0,1-1-2.53V223.59h7v68.26a3.57,3.57,0,0,1-1,2.53A3.26,3.26,0,0,1,3589.09,295.44Z"/><path class="cls-1" d="M3617.43,295.44a3.34,3.34,0,0,1-2.51-.92,3.52,3.52,0,0,1-.9-2.58V248.61a3.51,3.51,0,0,1,.9-2.57,3.88,3.88,0,0,1,5,0,3.55,3.55,0,0,1,.89,2.57v43.33a3.56,3.56,0,0,1-.89,2.58A3.37,3.37,0,0,1,3617.43,295.44Zm-.54-31a22,22,0,0,1,2.91-10.22,20,20,0,0,1,6.91-7.08,17.9,17.9,0,0,1,9.46-2.58,13.67,13.67,0,0,1,6.36,1.2,2.91,2.91,0,0,1,1.71,3.5,2.76,2.76,0,0,1-1.21,1.84,3.69,3.69,0,0,1-2.07.36l-2.73-.18a19.44,19.44,0,0,0-8.92,1.06,13.59,13.59,0,0,0-6.19,4.64,12.33,12.33,0,0,0-2.29,7.46Z"/><path class="cls-1" d="M3673.47,293.88a3.21,3.21,0,0,1-2.51.23,3.5,3.5,0,0,1-1.89-1.8l-20-42.5a3.27,3.27,0,0,1-.18-2.58,3.38,3.38,0,0,1,1.79-1.84A3,3,0,0,1,3655,247l19.63,42.5a3.73,3.73,0,0,1,.45,2.58A2.72,2.72,0,0,1,3673.47,293.88Zm-10,23.46a4.45,4.45,0,0,1-1.61-.37q-3-1.38-1.7-4.42l29-65.5c.9-2,2.33-2.52,4.3-1.66s2.6,2.3,1.71,4.33l-29.05,65.5C3665.52,316.63,3664.65,317.34,3663.51,317.34Z"/><path class="cls-1" d="M3734,295.44a3.37,3.37,0,0,1-2.55-1,3.45,3.45,0,0,1-1-2.53V248.7a3.6,3.6,0,0,1,1-2.62,3.4,3.4,0,0,1,2.55-1,3.31,3.31,0,0,1,2.47,1,3.64,3.64,0,0,1,.94,2.62v43.24a3.48,3.48,0,0,1-.94,2.53A3.28,3.28,0,0,1,3734,295.44Zm38.56,0a3.35,3.35,0,0,1-2.51-1,3.42,3.42,0,0,1-1-2.49V268a18.63,18.63,0,0,0-2.11-9.38,13.57,13.57,0,0,0-5.74-5.52,19,19,0,0,0-16.14-.09,14.17,14.17,0,0,0-5.6,4.78,12,12,0,0,0-2.06,6.9h-4.93a20.18,20.18,0,0,1,3.05-10.35,20.58,20.58,0,0,1,7.62-7.17,21.48,21.48,0,0,1,10.58-2.63,23.59,23.59,0,0,1,11.39,2.72,19.67,19.67,0,0,1,7.93,8A26,26,0,0,1,3776,268v23.92a3.42,3.42,0,0,1-1,2.49A3.28,3.28,0,0,1,3772.55,295.44Z"/><path class="cls-1" d="M3813.52,295.9a24.86,24.86,0,0,1-12.82-3.31,23.91,23.91,0,0,1-8.88-9.11,28.67,28.67,0,0,1,0-26.4,23.84,23.84,0,0,1,8.88-9.11,24.86,24.86,0,0,1,12.82-3.31A24.61,24.61,0,0,1,3826.3,248a23.79,23.79,0,0,1,8.83,9.11,27.47,27.47,0,0,1,3.32,13.24,26.3,26.3,0,0,1-3.27,13.16,24.28,24.28,0,0,1-8.88,9.11A24.61,24.61,0,0,1,3813.52,295.9Zm0-6.44a17.78,17.78,0,0,0,9.33-2.48,17.47,17.47,0,0,0,6.45-6.81,20.37,20.37,0,0,0,2.34-9.85,20.64,20.64,0,0,0-2.34-9.89,17.37,17.37,0,0,0-6.45-6.85,18,18,0,0,0-25.15,6.85,20.32,20.32,0,0,0-2.38,9.89,20.05,20.05,0,0,0,2.38,9.85,17.59,17.59,0,0,0,15.82,9.29Z"/><path class="cls-1" d="M3860.33,295.44a3.47,3.47,0,0,1-3.32-2.3l-14-43.06a5.59,5.59,0,0,1,.09-3.63,2.5,2.5,0,0,1,2.51-1.33,3.46,3.46,0,0,1,2.07.64,3.9,3.9,0,0,1,1.34,2l12.46,39.1h-2l11.57-39a4.28,4.28,0,0,1,1.21-2,3.12,3.12,0,0,1,2.19-.78,3.25,3.25,0,0,1,2.2.73,4,4,0,0,1,1.21,2l11,38.08h-1.52l12.19-38.18a3.37,3.37,0,0,1,3.32-2.66,2.7,2.7,0,0,1,2.69,1.51,4.3,4.3,0,0,1,0,3.45l-14,43.06a3.48,3.48,0,0,1-1.21,1.66,3.25,3.25,0,0,1-2,.64,3.62,3.62,0,0,1-2.1-.64,2.85,2.85,0,0,1-1.21-1.66l-11.3-38.46h1.07l-11.29,38.46a3.13,3.13,0,0,1-1.26,1.7A3.46,3.46,0,0,1,3860.33,295.44Z"/><path class="cls-9" d="M663,290.8V166.9h41.4a68,68,0,0,1,20.7,2.83,41,41,0,0,1,14.58,7.88,30.82,30.82,0,0,1,8.54,12,43.84,43.84,0,0,1,0,30.62,30.78,30.78,0,0,1-8.54,12,41,41,0,0,1-14.58,7.88,67.66,67.66,0,0,1-20.7,2.83H679.18V290.8Zm16.22-62.3H703.5q17.25,0,24.24-6.38t7-17.16q0-10.8-7-17.17t-24.24-6.38H679.18Z"/><path class="cls-9" d="M808.73,292.57A48,48,0,0,1,792,289.65a38.92,38.92,0,0,1-14-8.85,43.13,43.13,0,0,1-9.67-15,56.35,56.35,0,0,1-3.62-21.06v-3.54a51.51,51.51,0,0,1,3.62-20.09A42.21,42.21,0,0,1,778,206.81a40.17,40.17,0,0,1,14-8.67,49.42,49.42,0,0,1,33.47,0,40.36,40.36,0,0,1,14,8.67,42.33,42.33,0,0,1,9.66,14.34,51.51,51.51,0,0,1,3.62,20.09v3.54a56.35,56.35,0,0,1-3.62,21.06,43.25,43.25,0,0,1-9.66,15,39.1,39.1,0,0,1-14,8.85A48,48,0,0,1,808.73,292.57Zm0-14.16a30.42,30.42,0,0,0,10.35-1.86,24.44,24.44,0,0,0,9.15-5.84,29.89,29.89,0,0,0,6.46-10.35,42.71,42.71,0,0,0,2.51-15.58v-3.54a37.7,37.7,0,0,0-2.51-14.51,29.62,29.62,0,0,0-6.46-9.92,24.12,24.12,0,0,0-9.15-5.66,31.15,31.15,0,0,0-20.7,0,24,24,0,0,0-9.14,5.66,29.64,29.64,0,0,0-6.47,9.92,37.71,37.71,0,0,0-2.5,14.51v3.54a42.72,42.72,0,0,0,2.5,15.58,29.91,29.91,0,0,0,6.47,10.35,24.32,24.32,0,0,0,9.14,5.84A30.42,30.42,0,0,0,808.73,278.41Z"/><path class="cls-9" d="M901.89,291.69A38.77,38.77,0,0,1,889.64,290a18.77,18.77,0,0,1-8.28-5.39,22.42,22.42,0,0,1-4.75-9.39,54.81,54.81,0,0,1-1.46-13.62V166.9h15.18v94.7a34.9,34.9,0,0,0,.69,7.61,11.36,11.36,0,0,0,2.24,4.86,8.45,8.45,0,0,0,4.14,2.66,21.34,21.34,0,0,0,6.21.8c1.26,0,2.36,0,3.28-.09s1.84-.15,2.76-.27V291c-.46.11-1,.23-1.73.35s-1.41.21-2.15.27-1.47.09-2.16.09Z"/><path class="cls-9" d="M938.11,328q-1.38,0-2.58-.09a15.43,15.43,0,0,1-2.59-.44V313.28a15.43,15.43,0,0,0,2.59.44q1.2.09,2.58.09a10.7,10.7,0,0,0,4.49-.88,10.38,10.38,0,0,0,3.71-3.37,35.87,35.87,0,0,0,3.71-7q1.89-4.51,4.48-11.77L915.69,197h16.9l29.67,76.11L989.18,197h16.21l-34.5,93.81q-3.63,9.92-6.9,17a54.39,54.39,0,0,1-7,11.6,22.84,22.84,0,0,1-8.19,6.54A25.7,25.7,0,0,1,938.11,328Z"/><path class="cls-9" d="M1064,292.57a61.06,61.06,0,0,1-19-2.65,39.91,39.91,0,0,1-13.63-7.35,35.15,35.15,0,0,1-8.71-11,46.36,46.36,0,0,1-4.4-13.54h16.22a26.46,26.46,0,0,0,2.93,7.7,20.62,20.62,0,0,0,5.6,6.28,26.87,26.87,0,0,0,8.72,4.16,44.25,44.25,0,0,0,12.24,1.5q14.67,0,22.09-5.57t7.41-14.07a20.47,20.47,0,0,0-1.64-8.68,15.41,15.41,0,0,0-5.52-6.19,41.53,41.53,0,0,0-10.17-4.78q-6.3-2.13-15.44-4.25a142.81,142.81,0,0,1-17.43-5,38.43,38.43,0,0,1-12.16-6.91,25.79,25.79,0,0,1-7.07-10,38.84,38.84,0,0,1-2.33-14.33,28.64,28.64,0,0,1,2.93-12.84,31.12,31.12,0,0,1,8.37-10.35,40.92,40.92,0,0,1,13.28-7,56.77,56.77,0,0,1,17.68-2.57A50.65,50.65,0,0,1,1081,167.7a37.73,37.73,0,0,1,12.33,7,33,33,0,0,1,8,10.35,47.46,47.46,0,0,1,4.14,12.84h-16.22a24.47,24.47,0,0,0-7.33-12.66Q1076.29,180,1064,180q-12.42,0-19.23,5.22T1038,197.88a18.24,18.24,0,0,0,1.72,8.23,15.74,15.74,0,0,0,5.35,5.93,39.16,39.16,0,0,0,9.23,4.42,126.71,126.71,0,0,0,13.37,3.72,127.18,127.18,0,0,1,19.23,5.66,46.69,46.69,0,0,1,13.11,7.52,25.67,25.67,0,0,1,7.42,10.36,39.76,39.76,0,0,1,2.33,14.34,30.15,30.15,0,0,1-3.11,13.54,32.23,32.23,0,0,1-9,11,43.53,43.53,0,0,1-14.31,7.35A64.53,64.53,0,0,1,1064,292.57Z"/><path class="cls-9" d="M1168.41,292.57a45.21,45.21,0,0,1-16.39-2.92,34.78,34.78,0,0,1-13.11-8.85,42.32,42.32,0,0,1-8.71-15,63,63,0,0,1-3.19-21.06v-3.54a53.69,53.69,0,0,1,3.45-20.09,42.9,42.9,0,0,1,9.14-14.34,37.7,37.7,0,0,1,13.2-8.67,42.61,42.61,0,0,1,15.61-2.92,43.39,43.39,0,0,1,14.58,2.3,35.23,35.23,0,0,1,11.21,6.37,34.66,34.66,0,0,1,7.77,9.56,43.67,43.67,0,0,1,4.39,11.86h-15.52a31.85,31.85,0,0,0-7.68-11.33q-4.92-4.59-14.75-4.6a25.85,25.85,0,0,0-9.66,1.86,23.41,23.41,0,0,0-8.28,5.66,27.64,27.64,0,0,0-5.78,9.83,43.13,43.13,0,0,0-2.15,14.51v3.54a49.13,49.13,0,0,0,2.15,15.49,28.92,28.92,0,0,0,5.78,10.44,22.33,22.33,0,0,0,8.28,5.84,25.85,25.85,0,0,0,9.66,1.86,23.36,23.36,0,0,0,14.23-4.25,22.71,22.71,0,0,0,8.2-11.68h15.52a40.27,40.27,0,0,1-5,12.48,36.49,36.49,0,0,1-8.36,9.47,37.15,37.15,0,0,1-11.13,6A41.51,41.51,0,0,1,1168.41,292.57Z"/><path class="cls-9" d="M1227.07,290.8V166.9h15.18v46.91a32.63,32.63,0,0,1,4.48-7.08,30.61,30.61,0,0,1,6.56-5.93,32.83,32.83,0,0,1,8.62-4.08,35.35,35.35,0,0,1,10.53-1.5q17.24,0,25.61,9.47t8.37,27.7V290.8h-15.18V235.93q0-13.27-5.35-19.91T1268,209.38a27.25,27.25,0,0,0-11.64,2.3,23,23,0,0,0-8,6,24.19,24.19,0,0,0-4.57,8.5,32.88,32.88,0,0,0-1.46,9.73V290.8Z"/><path class="cls-9" d="M1371.11,292.57a49.52,49.52,0,0,1-16.73-2.83,37.94,37.94,0,0,1-14-8.76,43.25,43.25,0,0,1-9.66-15,57,57,0,0,1-3.62-21.24v-3.54a54.23,54.23,0,0,1,3.45-20.27,41.87,41.87,0,0,1,9.23-14.33,37,37,0,0,1,13.45-8.59,46.44,46.44,0,0,1,16.13-2.83q20.36,0,31.31,11.24t11,32.13v9.91H1342.3a33.6,33.6,0,0,0,2.59,13.89,25.49,25.49,0,0,0,16,14.43,34.2,34.2,0,0,0,10.26,1.59q10.35,0,16-3.54a19.71,19.71,0,0,0,8-9.73h14.83A32.06,32.06,0,0,1,1405,277a32.64,32.64,0,0,1-8.63,8.59,38.45,38.45,0,0,1-11.56,5.22A51.71,51.71,0,0,1,1371.11,292.57Zm-28.81-56.82h55a33.43,33.43,0,0,0-2.33-12.3,21.75,21.75,0,0,0-5.78-8.14,22.51,22.51,0,0,0-8.54-4.51,37.23,37.23,0,0,0-10.43-1.42,35.46,35.46,0,0,0-10.35,1.51,24.2,24.2,0,0,0-15.18,13A26.73,26.73,0,0,0,1342.3,235.75Z"/><path class="cls-9" d="M1465.12,292.57a38.51,38.51,0,0,1-15.43-3,32,32,0,0,1-12-8.94,41.81,41.81,0,0,1-7.77-14.95,71.59,71.59,0,0,1-2.76-20.89v-3.54a62.56,62.56,0,0,1,2.85-19.73,42.28,42.28,0,0,1,7.85-14.43,32.58,32.58,0,0,1,12-8.85,38.09,38.09,0,0,1,15.26-3,36.4,36.4,0,0,1,19.24,5,30.38,30.38,0,0,1,12.16,13.63V166.9h15.18V290.8h-14.14V273.1a29.18,29.18,0,0,1-12.08,14.07Q1476.86,292.57,1465.12,292.57Zm3.46-13.81a29.6,29.6,0,0,0,11.38-2.12,25.86,25.86,0,0,0,8.8-5.84,26.69,26.69,0,0,0,5.69-9,31.88,31.88,0,0,0,2.07-11.68V235.93a27.32,27.32,0,0,0-2.07-10.62,26.52,26.52,0,0,0-5.69-8.58,25.47,25.47,0,0,0-8.8-5.67,31,31,0,0,0-11.38-2,25.37,25.37,0,0,0-10.36,2.12,23,23,0,0,0-8.36,6.28,30.16,30.16,0,0,0-5.52,10.09,43.07,43.07,0,0,0-2,13.72v3.54a49.21,49.21,0,0,0,2,14.69,30.49,30.49,0,0,0,5.52,10.62,23.44,23.44,0,0,0,8.36,6.46A24.49,24.49,0,0,0,1468.58,278.76Z"/><path class="cls-9" d="M1571.56,292.57q-16.74,0-24.93-9.73t-8.19-30.09V197h15.18v54.87q0,13.27,5.26,19.91t17.17,6.64a25.15,25.15,0,0,0,11.21-2.3,22.7,22.7,0,0,0,7.68-6,25,25,0,0,0,4.48-8.49,33,33,0,0,0,1.47-9.74V197h15.18V290.8h-14.15V273.1a31.23,31.23,0,0,1-10.78,13.72Q1583.46,292.56,1571.56,292.57Z"/><path class="cls-9" d="M1671.27,291.69A38.82,38.82,0,0,1,1659,290a18.88,18.88,0,0,1-8.28-5.39,22.41,22.41,0,0,1-4.74-9.39,54.77,54.77,0,0,1-1.47-13.62V166.9h15.18v94.7a34.9,34.9,0,0,0,.69,7.61,11.37,11.37,0,0,0,2.25,4.86,8.45,8.45,0,0,0,4.14,2.66,21.24,21.24,0,0,0,6.21.8q1.89,0,3.27-.09t2.76-.27V291c-.46.11-1,.23-1.72.35s-1.41.21-2.16.27-1.46.09-2.15.09Z"/><path class="cls-9" d="M1735.1,292.57a49.52,49.52,0,0,1-16.73-2.83,37.94,37.94,0,0,1-14-8.76,43.25,43.25,0,0,1-9.66-15,57,57,0,0,1-3.62-21.24v-3.54a54.23,54.23,0,0,1,3.45-20.27,41.87,41.87,0,0,1,9.23-14.33,37,37,0,0,1,13.45-8.59,46.44,46.44,0,0,1,16.13-2.83q20.36,0,31.31,11.24t11,32.13v9.91h-69.35a33.6,33.6,0,0,0,2.59,13.89,25.5,25.5,0,0,0,15.95,14.43,34.31,34.31,0,0,0,10.27,1.59q10.35,0,16-3.54a19.71,19.71,0,0,0,8-9.73h14.83A32.06,32.06,0,0,1,1769,277a32.64,32.64,0,0,1-8.63,8.59,38.45,38.45,0,0,1-11.56,5.22A51.71,51.71,0,0,1,1735.1,292.57Zm-28.81-56.82h55a33.43,33.43,0,0,0-2.33-12.3,21.75,21.75,0,0,0-5.78-8.14,22.51,22.51,0,0,0-8.54-4.51,37.23,37.23,0,0,0-10.43-1.42,35.46,35.46,0,0,0-10.35,1.51,24.2,24.2,0,0,0-15.18,13A26.73,26.73,0,0,0,1706.29,235.75Z"/><path d="M647.19,382,667,328.8h7L693.86,382H686.3l-5-13.22H659.41l-5,13.22Zm14.52-19.46H679l-8.66-24.62Z"/><path d="M701.26,382V341.72h6.08v7.6a13.55,13.55,0,0,1,4.7-5.85,14.22,14.22,0,0,1,8.7-2.51q7.41,0,11,4.07t3.6,11.89V382h-6.52V358.44q0-5.7-2.3-8.55t-7.7-2.85a11.68,11.68,0,0,0-5,1,9.9,9.9,0,0,0-3.45,2.58,10.56,10.56,0,0,0-2,3.65,14.17,14.17,0,0,0-.63,4.18V382Z"/><path d="M781.63,382.76a21.19,21.19,0,0,1-7.18-1.22,16,16,0,0,1-6-3.76,18.37,18.37,0,0,1-4.15-6.42,24.32,24.32,0,0,1-1.56-9.12v-1.52a23.44,23.44,0,0,1,1.48-8.7,18,18,0,0,1,4-6.16,16,16,0,0,1,5.77-3.68,19.9,19.9,0,0,1,6.93-1.22q8.75,0,13.44,4.83T799,359.58v4.26H769.26a14.45,14.45,0,0,0,1.11,6,11,11,0,0,0,6.85,6.2,14.9,14.9,0,0,0,4.41.68,12.88,12.88,0,0,0,6.85-1.52,8.48,8.48,0,0,0,3.45-4.18h6.37a13.81,13.81,0,0,1-2.11,5.09,14.15,14.15,0,0,1-3.71,3.69,16.5,16.5,0,0,1-5,2.24A22.11,22.11,0,0,1,781.63,382.76Zm-12.37-24.4h23.63a14.31,14.31,0,0,0-1-5.28,9.28,9.28,0,0,0-2.48-3.49,9.73,9.73,0,0,0-3.67-1.94,16,16,0,0,0-4.48-.61,15.34,15.34,0,0,0-4.44.65,10.46,10.46,0,0,0-3.82,2.05,10.64,10.64,0,0,0-2.7,3.53A11.55,11.55,0,0,0,769.26,358.36Z"/><path d="M819.48,382.76a16.11,16.11,0,0,1-5.7-.95,12,12,0,0,1-4.23-2.62,11.12,11.12,0,0,1-2.59-3.95,13.79,13.79,0,0,1-.89-5q0-6,3.45-8.66t9.89-2.66h12.74v-2.74c0-3.5-.76-5.89-2.26-7.18s-3.77-1.94-6.78-1.94c-2.81,0-4.86.55-6.15,1.63a5.63,5.63,0,0,0-2.15,3.69H808.3a10.54,10.54,0,0,1,1.29-4.52,11.64,11.64,0,0,1,3.11-3.61,15.35,15.35,0,0,1,4.71-2.4,20,20,0,0,1,6.07-.87,23.2,23.2,0,0,1,6.3.8,11.85,11.85,0,0,1,4.77,2.55,11.45,11.45,0,0,1,3,4.48,18,18,0,0,1,1.07,6.61v16.34c0,2.13,0,4,0,5.59A41.88,41.88,0,0,0,839,382h-5.71c-.15-1.16-.25-2.27-.29-3.31s-.08-2.21-.08-3.53a10.74,10.74,0,0,1-2,3,13.94,13.94,0,0,1-3,2.4,15.6,15.6,0,0,1-3.85,1.63A16.59,16.59,0,0,1,819.48,382.76Zm1.41-6.08a14,14,0,0,0,4.33-.65,10.74,10.74,0,0,0,3.59-1.9,8.72,8.72,0,0,0,2.45-3.11,9.72,9.72,0,0,0,.89-4.22v-2.73H820.52a9.68,9.68,0,0,0-5.71,1.48,5.34,5.34,0,0,0-2.07,4.67,6.05,6.05,0,0,0,2,4.64Q816.67,376.67,820.89,376.68Z"/><path d="M863.85,382.76a21.62,21.62,0,0,1-6.78-.95,14.85,14.85,0,0,1-4.81-2.55,11.93,11.93,0,0,1-3.11-3.76,15.84,15.84,0,0,1-1.6-4.52h6.52a7.28,7.28,0,0,0,2.78,4.22c1.5,1.19,3.84,1.79,7,1.79,3.65,0,6.2-.6,7.63-1.79a5.36,5.36,0,0,0,2.15-4.22,5.17,5.17,0,0,0-.49-2.28,4.75,4.75,0,0,0-1.7-1.82,11.64,11.64,0,0,0-3.3-1.45,38.66,38.66,0,0,0-5.33-1.06,33.25,33.25,0,0,1-5.89-1.33,14.34,14.34,0,0,1-4.44-2.32,10.12,10.12,0,0,1-2.82-3.49,11.11,11.11,0,0,1-1-4.87,10,10,0,0,1,1-4.33,10.42,10.42,0,0,1,2.89-3.65,14.23,14.23,0,0,1,4.74-2.51,21.33,21.33,0,0,1,6.59-.91,17.7,17.7,0,0,1,6.07,1,13.09,13.09,0,0,1,4.37,2.55,12.31,12.31,0,0,1,2.85,3.72,16.43,16.43,0,0,1,1.52,4.56h-6.52a7.79,7.79,0,0,0-2.51-4.33c-1.29-1.12-3.21-1.67-5.78-1.67q-4.89,0-6.78,1.63a5.08,5.08,0,0,0-1.89,4,4.58,4.58,0,0,0,2.11,4.1q2.12,1.38,7.74,2.13a38.67,38.67,0,0,1,6.45,1.33,15.24,15.24,0,0,1,4.74,2.36,9.69,9.69,0,0,1,2.92,3.61,11.82,11.82,0,0,1,1,5.09,10.6,10.6,0,0,1-1,4.52,10.1,10.1,0,0,1-3,3.76,15.06,15.06,0,0,1-5.07,2.55A24.68,24.68,0,0,1,863.85,382.76Z"/><path d="M894.59,398c-.4,0-.77,0-1.11,0a5.87,5.87,0,0,1-1.11-.19v-6.08a5.87,5.87,0,0,0,1.11.19c.34,0,.71,0,1.11,0a4.53,4.53,0,0,0,1.92-.38,4.29,4.29,0,0,0,1.6-1.44,15,15,0,0,0,1.59-3c.54-1.3,1.18-3,1.93-5.06L885,341.72h7.26L905,374.4l11.55-32.68h7L908.66,382c-1,2.84-2,5.27-3,7.3a23.37,23.37,0,0,1-3,5,9.91,9.91,0,0,1-3.52,2.82A11.06,11.06,0,0,1,894.59,398Z"/><path d="M956.44,382,945.7,341.72h7.11l7.55,31.16,10.23-31.16h5.77L987,372.88l7.48-31.16h6.81L990.51,382H984l-10.66-31.16L963,382Z"/><path d="M1019.1,382.76a16.15,16.15,0,0,1-5.7-.95,11.9,11.9,0,0,1-4.22-2.62,11,11,0,0,1-2.59-3.95,13.58,13.58,0,0,1-.89-5q0-6,3.44-8.66t9.89-2.66h12.74v-2.74q0-5.25-2.26-7.18t-6.78-1.94c-2.81,0-4.86.55-6.14,1.63a5.59,5.59,0,0,0-2.15,3.69h-6.52a10.69,10.69,0,0,1,1.29-4.52,11.67,11.67,0,0,1,3.12-3.61,15.18,15.18,0,0,1,4.7-2.4,20,20,0,0,1,6.07-.87,23.2,23.2,0,0,1,6.3.8,11.89,11.89,0,0,1,4.78,2.55,11.33,11.33,0,0,1,3,4.48,18,18,0,0,1,1.08,6.61v16.34c0,2.13,0,4,0,5.59a39.63,39.63,0,0,0,.33,4.67H1033c-.15-1.16-.25-2.27-.3-3.31s-.08-2.21-.08-3.53a10.93,10.93,0,0,1-2,3,14.45,14.45,0,0,1-3,2.4,15.77,15.77,0,0,1-3.85,1.63A16.71,16.71,0,0,1,1019.1,382.76Zm1.41-6.08a13.92,13.92,0,0,0,4.33-.65,10.88,10.88,0,0,0,3.6-1.9,8.8,8.8,0,0,0,2.44-3.11,9.72,9.72,0,0,0,.89-4.22v-2.73h-11.63a9.62,9.62,0,0,0-5.7,1.48,5.32,5.32,0,0,0-2.08,4.67,6.06,6.06,0,0,0,2,4.64C1015.63,376.07,1017.7,376.68,1020.51,376.68Z"/><path d="M1053.47,398c-.39,0-.76,0-1.11,0a6.15,6.15,0,0,1-1.11-.19v-6.08a6.15,6.15,0,0,0,1.11.19c.35,0,.72,0,1.11,0a4.61,4.61,0,0,0,1.93-.38,4.35,4.35,0,0,0,1.59-1.44,15,15,0,0,0,1.59-3c.55-1.3,1.19-3,1.93-5.06l-16.67-40.28h7.26l12.74,32.68,11.56-32.68h7L1067.55,382q-1.56,4.26-3,7.3a23.37,23.37,0,0,1-3,5,9.89,9.89,0,0,1-3.51,2.82A11.14,11.14,0,0,1,1053.47,398Z"/><path d="M1122.73,382.38a17.81,17.81,0,0,1-5.37-.72,8.49,8.49,0,0,1-5.82-5.89,18.09,18.09,0,0,1-.66-5.17v-23H1105v-5.93h5.93V332.6h6.52v9.12h10.51v5.93H1117.4v22.19a11.59,11.59,0,0,0,.33,2.93,4.28,4.28,0,0,0,1.11,2,4.81,4.81,0,0,0,2.07,1.14,12.16,12.16,0,0,0,3.3.38c.74,0,1.48,0,2.22,0a21.19,21.19,0,0,0,2.23-.19V382q-1.41.15-2.82.27C1124.9,382.34,1123.87,382.38,1122.73,382.38Z"/><path d="M1154.21,382.76a20.73,20.73,0,0,1-7.18-1.25,16.58,16.58,0,0,1-6-3.8,18.41,18.41,0,0,1-4.15-6.43,24.07,24.07,0,0,1-1.56-9v-1.52a22,22,0,0,1,1.56-8.63,18,18,0,0,1,4.15-6.15,17.1,17.1,0,0,1,6-3.73,21.25,21.25,0,0,1,14.36,0,17.1,17.1,0,0,1,6,3.73,18,18,0,0,1,4.15,6.15,22,22,0,0,1,1.56,8.63v1.52a24.07,24.07,0,0,1-1.56,9,18.41,18.41,0,0,1-4.15,6.43,16.58,16.58,0,0,1-6,3.8A20.73,20.73,0,0,1,1154.21,382.76Zm0-6.08a13.1,13.1,0,0,0,4.44-.8,10.45,10.45,0,0,0,3.93-2.51,12.77,12.77,0,0,0,2.78-4.44,18.51,18.51,0,0,0,1.07-6.69v-1.52a16.32,16.32,0,0,0-1.07-6.23,12.8,12.8,0,0,0-2.78-4.26,10.38,10.38,0,0,0-3.93-2.43,13.35,13.35,0,0,0-8.88,0,10.38,10.38,0,0,0-3.93,2.43,12.8,12.8,0,0,0-2.78,4.26,16.32,16.32,0,0,0-1.07,6.23v1.52a18.51,18.51,0,0,0,1.07,6.69,12.77,12.77,0,0,0,2.78,4.44,10.45,10.45,0,0,0,3.93,2.51A13.1,13.1,0,0,0,1154.21,376.68Z"/><path d="M1200.87,382V328.8h6.52v31.46l18.08-18.54h8l-16.3,16.64L1235,382h-8.3l-14.15-19-5.11,4.94V382Z"/><path d="M1257.54,382.76a21.29,21.29,0,0,1-7.19-1.22,16.12,16.12,0,0,1-6-3.76,18.49,18.49,0,0,1-4.14-6.42,24.32,24.32,0,0,1-1.56-9.12v-1.52a23.24,23.24,0,0,1,1.48-8.7,18,18,0,0,1,4-6.16,16,16,0,0,1,5.77-3.68,19.9,19.9,0,0,1,6.93-1.22q8.75,0,13.44,4.83t4.71,13.79v4.26h-29.78a14.45,14.45,0,0,0,1.11,6,11,11,0,0,0,6.85,6.2,14.9,14.9,0,0,0,4.41.68,12.88,12.88,0,0,0,6.85-1.52,8.48,8.48,0,0,0,3.45-4.18h6.37a13.66,13.66,0,0,1-2.12,5.09,14,14,0,0,1-3.7,3.69,16.62,16.62,0,0,1-5,2.24A22.11,22.11,0,0,1,1257.54,382.76Zm-12.37-24.4h23.63a14.31,14.31,0,0,0-1-5.28,9.39,9.39,0,0,0-2.48-3.49,9.73,9.73,0,0,0-3.67-1.94,16,16,0,0,0-4.48-.61,15.46,15.46,0,0,0-4.45.65,10.5,10.5,0,0,0-3.81,2.05,10.64,10.64,0,0,0-2.7,3.53A11.42,11.42,0,0,0,1245.17,358.36Z"/><path d="M1300.5,382.76a21.19,21.19,0,0,1-7.18-1.22,16,16,0,0,1-6-3.76,18.37,18.37,0,0,1-4.15-6.42,24.32,24.32,0,0,1-1.56-9.12v-1.52a23.24,23.24,0,0,1,1.48-8.7,18,18,0,0,1,4-6.16,16,16,0,0,1,5.77-3.68,19.9,19.9,0,0,1,6.93-1.22q8.74,0,13.44,4.83t4.71,13.79v4.26h-29.78a14.45,14.45,0,0,0,1.11,6,11.06,11.06,0,0,0,2.89,4,11.25,11.25,0,0,0,4,2.21,14.9,14.9,0,0,0,4.41.68,12.88,12.88,0,0,0,6.85-1.52,8.48,8.48,0,0,0,3.45-4.18h6.37a13.81,13.81,0,0,1-2.11,5.09,14.15,14.15,0,0,1-3.71,3.69,16.62,16.62,0,0,1-5,2.24A22.11,22.11,0,0,1,1300.5,382.76Zm-12.37-24.4h23.63a14.31,14.31,0,0,0-1-5.28,9.39,9.39,0,0,0-2.48-3.49,9.73,9.73,0,0,0-3.67-1.94,16,16,0,0,0-4.48-.61,15.34,15.34,0,0,0-4.44.65,10.46,10.46,0,0,0-3.82,2.05,10.64,10.64,0,0,0-2.7,3.53A11.42,11.42,0,0,0,1288.13,358.36Z"/><path d="M1327.17,397.2V341.72h6.07v7.6a14.63,14.63,0,0,1,5.59-6.19,15.77,15.77,0,0,1,8.33-2.17,15.13,15.13,0,0,1,11.86,5q4.44,5,4.44,14.78v1.52a31.1,31.1,0,0,1-1.18,9,18.23,18.23,0,0,1-3.34,6.42,13.75,13.75,0,0,1-5.15,3.84,16.61,16.61,0,0,1-6.63,1.29,14.63,14.63,0,0,1-8.44-2.28,15,15,0,0,1-5-5.7V397.2Zm18.51-20.37a10.49,10.49,0,0,0,4.45-.95,10,10,0,0,0,3.59-2.77,13.29,13.29,0,0,0,2.37-4.56,21.18,21.18,0,0,0,.85-6.31v-1.52a18.51,18.51,0,0,0-.85-5.89,13,13,0,0,0-2.37-4.33,9.93,9.93,0,0,0-3.59-2.7,10.94,10.94,0,0,0-4.45-.91,13.37,13.37,0,0,0-4.89.87,11,11,0,0,0-3.77,2.43,11.29,11.29,0,0,0-2.45,3.69,11.77,11.77,0,0,0-.89,4.56v6.08a13.79,13.79,0,0,0,.89,5,11.28,11.28,0,0,0,2.45,3.87,10.93,10.93,0,0,0,3.77,2.51A12.78,12.78,0,0,0,1345.68,376.83Z"/><path d="M1405.68,382.38a17.81,17.81,0,0,1-5.37-.72,8.45,8.45,0,0,1-5.81-5.89,17.72,17.72,0,0,1-.67-5.17v-23h-5.93v-5.93h5.93V332.6h6.52v9.12h10.52v5.93h-10.52v22.19a11.59,11.59,0,0,0,.33,2.93,4.28,4.28,0,0,0,1.11,2,4.79,4.79,0,0,0,2.08,1.14,12,12,0,0,0,3.29.38c.74,0,1.48,0,2.22,0a21,21,0,0,0,2.23-.19V382q-1.41.15-2.82.27C1407.85,382.34,1406.82,382.38,1405.68,382.38Z"/><path d="M1420.86,382V341.72h6.08v7.6a14.78,14.78,0,0,1,1.7-3.34,11.28,11.28,0,0,1,2.48-2.63,12.12,12.12,0,0,1,3.26-1.74,11.55,11.55,0,0,1,3.89-.65,15.65,15.65,0,0,1,2.41.15,14.88,14.88,0,0,1,1.67.38v6.24a9,9,0,0,0-1.89-.54,16.93,16.93,0,0,0-2.56-.15,10.3,10.3,0,0,0-4.15.84,10.11,10.11,0,0,0-3.33,2.31,10.72,10.72,0,0,0-2.22,3.62,12.66,12.66,0,0,0-.82,4.63V382Z"/><path d="M1460.2,382.76a16.16,16.16,0,0,1-5.71-.95,12,12,0,0,1-4.22-2.62,11,11,0,0,1-2.59-3.95,13.79,13.79,0,0,1-.89-5q0-6,3.44-8.66t9.89-2.66h12.74v-2.74q0-5.25-2.26-7.18t-6.77-1.94c-2.82,0-4.87.55-6.15,1.63a5.59,5.59,0,0,0-2.15,3.69H1449a10.55,10.55,0,0,1,1.3-4.52,11.51,11.51,0,0,1,3.11-3.61,15.41,15.41,0,0,1,4.7-2.4,20,20,0,0,1,6.08-.87,23.07,23.07,0,0,1,6.29.8,11.89,11.89,0,0,1,4.78,2.55,11.45,11.45,0,0,1,3,4.48,18.24,18.24,0,0,1,1.07,6.61v16.34c0,2.13,0,4,0,5.59a39.63,39.63,0,0,0,.33,4.67h-5.7c-.15-1.16-.25-2.27-.3-3.31s-.07-2.21-.07-3.53a11.19,11.19,0,0,1-2,3,13.94,13.94,0,0,1-3,2.4,15.77,15.77,0,0,1-3.85,1.63A16.59,16.59,0,0,1,1460.2,382.76Zm1.4-6.08a14,14,0,0,0,4.34-.65,10.83,10.83,0,0,0,3.59-1.9A8.69,8.69,0,0,0,1472,371a9.58,9.58,0,0,0,.89-4.22v-2.73h-11.63a9.62,9.62,0,0,0-5.7,1.48,5.34,5.34,0,0,0-2.07,4.67,6.05,6.05,0,0,0,2,4.64Q1457.39,376.67,1461.6,376.68Z"/><path d="M1506.05,382.76a19.56,19.56,0,0,1-7-1.25,14.94,14.94,0,0,1-5.63-3.8,18.12,18.12,0,0,1-3.74-6.43,27.15,27.15,0,0,1-1.37-9v-1.52a23,23,0,0,1,1.48-8.63,18.46,18.46,0,0,1,3.93-6.15,16.18,16.18,0,0,1,5.66-3.73,19.39,19.39,0,0,1,13-.26,15.19,15.19,0,0,1,4.81,2.73,14.69,14.69,0,0,1,3.33,4.11,18.4,18.4,0,0,1,1.89,5.09h-6.66a13.6,13.6,0,0,0-3.3-4.86q-2.12-2-6.33-2a11.1,11.1,0,0,0-4.15.8,10,10,0,0,0-3.56,2.43,12,12,0,0,0-2.48,4.22,18.47,18.47,0,0,0-.92,6.23v1.52a21,21,0,0,0,.92,6.65,12.44,12.44,0,0,0,2.48,4.48,9.62,9.62,0,0,0,3.56,2.51,11.1,11.1,0,0,0,4.15.8,10.08,10.08,0,0,0,6.11-1.82,9.87,9.87,0,0,0,3.52-5h6.66a17.17,17.17,0,0,1-2.15,5.36,15.41,15.41,0,0,1-3.59,4.06,15.89,15.89,0,0,1-4.78,2.59A17.63,17.63,0,0,1,1506.05,382.76Z"/><path d="M1531.23,382V328.8h6.52v31.46l18.07-18.54h8l-16.29,16.64L1565.3,382H1557l-14.15-19-5.11,4.94V382Z"/><path d="M1607.89,382.76a20.77,20.77,0,0,1-7.18-1.25,16.75,16.75,0,0,1-6-3.8,18.55,18.55,0,0,1-4.15-6.43,24.07,24.07,0,0,1-1.55-9v-1.52a22.05,22.05,0,0,1,1.55-8.63,18.18,18.18,0,0,1,4.15-6.15,17.28,17.28,0,0,1,6-3.73,21.27,21.27,0,0,1,14.37,0,17.28,17.28,0,0,1,6,3.73,18.18,18.18,0,0,1,4.15,6.15,22.24,22.24,0,0,1,1.55,8.63v1.52a24.27,24.27,0,0,1-1.55,9,18.55,18.55,0,0,1-4.15,6.43,16.75,16.75,0,0,1-6,3.8A20.79,20.79,0,0,1,1607.89,382.76Zm0-6.08a13.11,13.11,0,0,0,4.45-.8,10.41,10.41,0,0,0,3.92-2.51,12.62,12.62,0,0,0,2.78-4.44,18.28,18.28,0,0,0,1.08-6.69v-1.52a16.12,16.12,0,0,0-1.08-6.23,12.65,12.65,0,0,0-2.78-4.26,10.34,10.34,0,0,0-3.92-2.43,13.38,13.38,0,0,0-8.89,0,10.46,10.46,0,0,0-3.93,2.43,12.78,12.78,0,0,0-2.77,4.26,16.12,16.12,0,0,0-1.08,6.23v1.52a18.28,18.28,0,0,0,1.08,6.69,12.75,12.75,0,0,0,2.77,4.44,10.53,10.53,0,0,0,3.93,2.51A13.1,13.1,0,0,0,1607.89,376.68Z"/><path d="M1637.52,382V347.65H1632v-5.93h5.55V341a19.44,19.44,0,0,1,.71-5.55,9.79,9.79,0,0,1,2.14-3.91,8.85,8.85,0,0,1,3.67-2.32,16.46,16.46,0,0,1,5.33-.76c.75,0,1.57,0,2.49,0s1.93.09,3.07.19v6.08c-.74-.1-1.54-.16-2.41-.19s-1.66,0-2.4,0q-3.42,0-4.75,1.41c-.88.93-1.33,2.62-1.33,5v.76h10.15v5.93H1644V382Z"/><path d="M1695.3,382.38a17.72,17.72,0,0,1-5.37-.72,8.44,8.44,0,0,1-5.82-5.89,18.09,18.09,0,0,1-.66-5.17v-23h-5.93v-5.93h5.93V332.6H1690v9.12h10.51v5.93H1690v22.19a11.59,11.59,0,0,0,.33,2.93,4.28,4.28,0,0,0,1.11,2,4.81,4.81,0,0,0,2.07,1.14,12.16,12.16,0,0,0,3.3.38c.74,0,1.48,0,2.22,0a20.78,20.78,0,0,0,2.22-.19V382c-.93.1-1.87.19-2.81.27S1696.43,382.38,1695.3,382.38Z"/><path d="M1710.48,382V328.8H1717v20.14a14.14,14.14,0,0,1,1.93-3,13.48,13.48,0,0,1,2.81-2.55,14.09,14.09,0,0,1,3.71-1.74A15.08,15.08,0,0,1,1730,341q7.41,0,11,4.07t3.6,11.89V382H1738V358.44q0-5.7-2.3-8.55T1728,347a11.68,11.68,0,0,0-5,1,9.9,9.9,0,0,0-3.45,2.58,10.39,10.39,0,0,0-2,3.65,14.17,14.17,0,0,0-.63,4.18V382Z"/><path d="M1772.33,382.76a21.19,21.19,0,0,1-7.18-1.22,16.12,16.12,0,0,1-6-3.76,18.51,18.51,0,0,1-4.15-6.42,24.32,24.32,0,0,1-1.56-9.12v-1.52a23.23,23.23,0,0,1,1.49-8.7,17.87,17.87,0,0,1,4-6.16,15.91,15.91,0,0,1,5.78-3.68,19.8,19.8,0,0,1,6.92-1.22q8.75,0,13.45,4.83t4.7,13.79v4.26H1760a14.45,14.45,0,0,0,1.11,6,11,11,0,0,0,6.85,6.2,14.9,14.9,0,0,0,4.41.68,12.88,12.88,0,0,0,6.85-1.52,8.43,8.43,0,0,0,3.45-4.18H1789a13.81,13.81,0,0,1-2.11,5.09,14.15,14.15,0,0,1-3.71,3.69,16.5,16.5,0,0,1-5,2.24A22.06,22.06,0,0,1,1772.33,382.76ZM1760,358.36h23.63a14.31,14.31,0,0,0-1-5.28,9.28,9.28,0,0,0-2.48-3.49,9.73,9.73,0,0,0-3.67-1.94A15.9,15.9,0,0,0,1772,347a15.34,15.34,0,0,0-4.44.65,10.46,10.46,0,0,0-3.82,2.05,10.64,10.64,0,0,0-2.7,3.53A11.55,11.55,0,0,0,1760,358.36Z"/><path d="M1831.22,382.76a21.62,21.62,0,0,1-6.78-.95,14.85,14.85,0,0,1-4.81-2.55,12.1,12.1,0,0,1-3.12-3.76,16.13,16.13,0,0,1-1.59-4.52h6.52a7.28,7.28,0,0,0,2.78,4.22c1.5,1.19,3.84,1.79,7,1.79q5.47,0,7.63-1.79A5.36,5.36,0,0,0,1841,371a5.17,5.17,0,0,0-.49-2.28,4.75,4.75,0,0,0-1.7-1.82,11.64,11.64,0,0,0-3.3-1.45,38.66,38.66,0,0,0-5.33-1.06,33.25,33.25,0,0,1-5.89-1.33,14.34,14.34,0,0,1-4.44-2.32,10.12,10.12,0,0,1-2.82-3.49,11.11,11.11,0,0,1-1-4.87,10,10,0,0,1,1-4.33,10.42,10.42,0,0,1,2.89-3.65,14.23,14.23,0,0,1,4.74-2.51,21.33,21.33,0,0,1,6.59-.91,17.7,17.7,0,0,1,6.07,1,13.09,13.09,0,0,1,4.37,2.55,12.31,12.31,0,0,1,2.85,3.72,16.43,16.43,0,0,1,1.52,4.56h-6.52a7.79,7.79,0,0,0-2.51-4.33c-1.29-1.12-3.22-1.67-5.78-1.67q-4.89,0-6.78,1.63a5.08,5.08,0,0,0-1.89,4,4.58,4.58,0,0,0,2.11,4.1q2.11,1.38,7.74,2.13a38.67,38.67,0,0,1,6.45,1.33,15.24,15.24,0,0,1,4.74,2.36,9.69,9.69,0,0,1,2.92,3.61,11.82,11.82,0,0,1,1,5.09,10.6,10.6,0,0,1-1,4.52,10.1,10.1,0,0,1-3,3.76,15.06,15.06,0,0,1-5.07,2.55A24.68,24.68,0,0,1,1831.22,382.76Z"/><path d="M1872,382.76a19.56,19.56,0,0,1-7-1.25,14.94,14.94,0,0,1-5.63-3.8,18.12,18.12,0,0,1-3.74-6.43,27.15,27.15,0,0,1-1.37-9v-1.52a23,23,0,0,1,1.48-8.63,18.46,18.46,0,0,1,3.93-6.15,16.18,16.18,0,0,1,5.66-3.73,19.39,19.39,0,0,1,13-.26,15.19,15.19,0,0,1,4.81,2.73,14.9,14.9,0,0,1,3.34,4.11,18.7,18.7,0,0,1,1.88,5.09h-6.66a13.6,13.6,0,0,0-3.3-4.86q-2.11-2-6.33-2a11.14,11.14,0,0,0-4.15.8,10,10,0,0,0-3.56,2.43,12,12,0,0,0-2.48,4.22,18.73,18.73,0,0,0-.92,6.23v1.52a21.31,21.31,0,0,0,.92,6.65,12.44,12.44,0,0,0,2.48,4.48,9.62,9.62,0,0,0,3.56,2.51,11.14,11.14,0,0,0,4.15.8,10.08,10.08,0,0,0,6.11-1.82,9.82,9.82,0,0,0,3.52-5h6.66a17.4,17.4,0,0,1-2.14,5.36,15.63,15.63,0,0,1-3.6,4.06,15.83,15.83,0,0,1-4.77,2.59A17.73,17.73,0,0,1,1872,382.76Z"/><path d="M1897.14,382V328.8h6.52v20.14a14.14,14.14,0,0,1,1.93-3,13.23,13.23,0,0,1,2.81-2.55,14.18,14.18,0,0,1,3.7-1.74,15.19,15.19,0,0,1,4.52-.65q7.41,0,11,4.07t3.6,11.89V382h-6.52V358.44q0-5.7-2.3-8.55t-7.7-2.85a11.64,11.64,0,0,0-5,1,9.9,9.9,0,0,0-3.45,2.58,10.39,10.39,0,0,0-2,3.65,14.17,14.17,0,0,0-.63,4.18V382Z"/><path d="M1959,382.76a21.19,21.19,0,0,1-7.18-1.22,16,16,0,0,1-6-3.76,18.51,18.51,0,0,1-4.15-6.42,24.32,24.32,0,0,1-1.56-9.12v-1.52a23.44,23.44,0,0,1,1.48-8.7,18,18,0,0,1,4-6.16,16,16,0,0,1,5.77-3.68,19.9,19.9,0,0,1,6.93-1.22q8.74,0,13.44,4.83t4.71,13.79v4.26h-29.78a14.45,14.45,0,0,0,1.11,6,11,11,0,0,0,6.85,6.2,14.9,14.9,0,0,0,4.41.68,12.88,12.88,0,0,0,6.85-1.52,8.48,8.48,0,0,0,3.45-4.18h6.37a13.81,13.81,0,0,1-2.11,5.09,14.15,14.15,0,0,1-3.71,3.69,16.5,16.5,0,0,1-5,2.24A22.06,22.06,0,0,1,1959,382.76Zm-12.37-24.4h23.63a14.31,14.31,0,0,0-1-5.28,9.28,9.28,0,0,0-2.48-3.49,9.73,9.73,0,0,0-3.67-1.94,15.9,15.9,0,0,0-4.48-.61,15.34,15.34,0,0,0-4.44.65,10.46,10.46,0,0,0-3.82,2.05,10.64,10.64,0,0,0-2.7,3.53A11.55,11.55,0,0,0,1946.62,358.36Z"/><path d="M1999.36,382.76a16.61,16.61,0,0,1-6.63-1.29,13.75,13.75,0,0,1-5.15-3.84,18.05,18.05,0,0,1-3.33-6.42,30.74,30.74,0,0,1-1.19-9v-1.52a26.7,26.7,0,0,1,1.23-8.47,18.07,18.07,0,0,1,3.37-6.2,14.05,14.05,0,0,1,5.14-3.8,16.44,16.44,0,0,1,6.56-1.29,15.65,15.65,0,0,1,8.26,2.13,13.1,13.1,0,0,1,5.22,5.85V328.8h6.52V382h-6.08v-7.6a12.43,12.43,0,0,1-5.18,6A16.09,16.09,0,0,1,1999.36,382.76Zm1.48-5.93a12.71,12.71,0,0,0,4.89-.91,11.07,11.07,0,0,0,3.78-2.51,11.41,11.41,0,0,0,2.44-3.87,13.79,13.79,0,0,0,.89-5v-6.08a11.77,11.77,0,0,0-.89-4.56,11.42,11.42,0,0,0-2.44-3.69,11.18,11.18,0,0,0-3.78-2.43,13.29,13.29,0,0,0-4.89-.87,10.85,10.85,0,0,0-4.44.91,10,10,0,0,0-3.6,2.7,13,13,0,0,0-2.37,4.33,18.8,18.8,0,0,0-.85,5.89v1.52a21.51,21.51,0,0,0,.85,6.31,13.29,13.29,0,0,0,2.37,4.56,10,10,0,0,0,3.6,2.77A10.42,10.42,0,0,0,2000.84,376.83Z"/><path d="M2045.06,382.76q-7.18,0-10.7-4.18t-3.52-12.92V341.72h6.52v23.56q0,5.7,2.26,8.55t7.37,2.85a10.75,10.75,0,0,0,4.81-1,9.78,9.78,0,0,0,3.3-2.58,10.81,10.81,0,0,0,1.92-3.65,14.17,14.17,0,0,0,.63-4.18V341.72h6.52V382h-6.07v-7.6a13.45,13.45,0,0,1-4.63,5.89A13.63,13.63,0,0,1,2045.06,382.76Z"/><path d="M2087.87,382.38a16.64,16.64,0,0,1-5.25-.72,8,8,0,0,1-3.56-2.32,9.6,9.6,0,0,1-2-4,23.58,23.58,0,0,1-.63-5.85V328.8h6.52v40.66a14.8,14.8,0,0,0,.3,3.27,4.88,4.88,0,0,0,1,2.09A3.71,3.71,0,0,0,2086,376a9.08,9.08,0,0,0,2.67.34c.54,0,1,0,1.4,0s.79-.06,1.19-.11v5.93l-.74.15a9.1,9.1,0,0,1-.93.11c-.32,0-.63,0-.92,0Z"/><path d="M2115.28,382.76a21.19,21.19,0,0,1-7.18-1.22,16,16,0,0,1-6-3.76,18.37,18.37,0,0,1-4.15-6.42,24.32,24.32,0,0,1-1.56-9.12v-1.52a23.44,23.44,0,0,1,1.48-8.7,18,18,0,0,1,4-6.16,16,16,0,0,1,5.77-3.68,19.9,19.9,0,0,1,6.93-1.22q8.74,0,13.44,4.83t4.71,13.79v4.26h-29.78a14.45,14.45,0,0,0,1.11,6,11,11,0,0,0,6.85,6.2,14.9,14.9,0,0,0,4.41.68,12.88,12.88,0,0,0,6.85-1.52,8.48,8.48,0,0,0,3.45-4.18H2132a13.81,13.81,0,0,1-2.11,5.09,14.15,14.15,0,0,1-3.71,3.69,16.5,16.5,0,0,1-5,2.24A22.11,22.11,0,0,1,2115.28,382.76Zm-12.37-24.4h23.63a14.31,14.31,0,0,0-1-5.28,9.39,9.39,0,0,0-2.48-3.49,9.73,9.73,0,0,0-3.67-1.94,16,16,0,0,0-4.48-.61,15.34,15.34,0,0,0-4.44.65,10.46,10.46,0,0,0-3.82,2.05,10.64,10.64,0,0,0-2.7,3.53A11.55,11.55,0,0,0,2102.91,358.36Z"/><path class="cls-8" d="M2300,60.52a63.15,63.15,0,0,0-27,6A33.53,33.53,0,1,0,2238,110.84a63.41,63.41,0,1,0,62-50.32Z"/><path class="cls-8" d="M2300,240.47a63.15,63.15,0,0,0-27,6,33.53,33.53,0,1,0-35.08,44.3,63.41,63.41,0,1,0,62-50.31Z"/><rect class="cls-13" x="2264.91" y="282.22" width="70.18" height="43.31" rx="15.45"/><rect class="cls-9" x="2279.09" y="288.13" width="2.52" height="31.47" rx="1.26"/><path class="cls-9" d="M2300,94.14a29.79,29.79,0,0,0-25.83,44.61l-3.84,11.91a2.33,2.33,0,0,0,2.93,2.93l11.92-3.84A29.78,29.78,0,1,0,2300,94.14Zm0,54.91a25.1,25.1,0,0,1-13.3-3.81,2.35,2.35,0,0,0-1.94-.24l-8.61,2.77,2.77-8.6a2.31,2.31,0,0,0-.24-1.95A25.13,25.13,0,1,1,2300,149.05Zm2.91-25.13A2.91,2.91,0,1,1,2300,121,2.91,2.91,0,0,1,2302.91,123.92Zm11.64,0a2.91,2.91,0,1,1-2.91-2.91A2.91,2.91,0,0,1,2314.55,123.92Zm-23.27,0a2.91,2.91,0,1,1-2.91-2.91A2.91,2.91,0,0,1,2291.28,123.92Z"/><path class="cls-9" d="M2323.85,453.37a36.08,36.08,0,1,0,10.57,25.51A35.82,35.82,0,0,0,2323.85,453.37Zm-25.51,57.37a31.86,31.86,0,1,1,31.85-31.86A31.89,31.89,0,0,1,2298.34,510.74Z"/><path class="cls-9" d="M2284.75,463.18a8.92,8.92,0,0,0-8.91,8.91,2.12,2.12,0,0,0,4.23,0,4.68,4.68,0,0,1,9.36,0,2.12,2.12,0,0,0,4.23,0A8.92,8.92,0,0,0,2284.75,463.18Z"/><path class="cls-9" d="M2311.92,463.18a8.92,8.92,0,0,0-8.9,8.91,2.11,2.11,0,0,0,4.22,0,4.68,4.68,0,1,1,9.36,0,2.12,2.12,0,0,0,4.23,0A8.92,8.92,0,0,0,2311.92,463.18Z"/><path class="cls-9" d="M2318.26,483.68a2.13,2.13,0,0,0-2.7,1.29,18.27,18.27,0,0,1-34.45,0,2.12,2.12,0,0,0-4,1.41,22.5,22.5,0,0,0,42.43,0A2.12,2.12,0,0,0,2318.26,483.68Z"/><path class="cls-14" d="M2242.67,95.1a2.27,2.27,0,0,1-1.65-.71,2.33,2.33,0,0,1-.71-1.7V63.92l-3.44,1.46a4,4,0,0,1-1.51.33,2.37,2.37,0,0,1-1.72-.66,2.25,2.25,0,0,1-.69-1.7,2.59,2.59,0,0,1,.38-1.37,2.15,2.15,0,0,1,1.18-.9l7.36-2.64a2.79,2.79,0,0,1,.47-.14,2.37,2.37,0,0,1,.43,0,2.24,2.24,0,0,1,1.72.69,2.5,2.5,0,0,1,.64,1.77v32a2.33,2.33,0,0,1-.71,1.7A2.39,2.39,0,0,1,2242.67,95.1Z"/><path class="cls-14" d="M2233,275.05a2.31,2.31,0,0,1-1.72-.71,2.34,2.34,0,0,1-.68-1.7,2.31,2.31,0,0,1,.66-1.7l13.4-15.66a17.92,17.92,0,0,0,2.19-3.11,6,6,0,0,0,.78-2.79,8.37,8.37,0,0,0-.71-3.58,5.35,5.35,0,0,0-2-2.34,6.31,6.31,0,0,0-6.39.1,6.53,6.53,0,0,0-2.27,2.45,7,7,0,0,0-.82,3.37,2.28,2.28,0,0,1-.69,1.65,2.26,2.26,0,0,1-1.72.71,2.3,2.3,0,0,1-1.7-.71,2.25,2.25,0,0,1-.7-1.65,11.15,11.15,0,0,1,1.46-5.73,10.76,10.76,0,0,1,4-4,11.15,11.15,0,0,1,5.68-1.46,11,11,0,0,1,5.57,1.37,9.28,9.28,0,0,1,3.65,3.87,12.7,12.7,0,0,1,1.3,5.94,8,8,0,0,1-.64,3.07,15.78,15.78,0,0,1-1.6,3,26.19,26.19,0,0,1-2,2.55l-10.8,12.27h13.21a2.31,2.31,0,0,1,1.74.73,2.35,2.35,0,0,1,0,3.37,2.37,2.37,0,0,1-1.74.71Z"/><path class="cls-14" d="M2240.58,454.06a12.91,12.91,0,0,1-6.27-1.48,11,11,0,0,1-5.85-9.84,2.49,2.49,0,0,1,.64-1.77,2.1,2.1,0,0,1,3.09,0,2.61,2.61,0,0,1,.61,1.77,6.71,6.71,0,0,0,1,3.56,7.38,7.38,0,0,0,2.69,2.6,7.64,7.64,0,0,0,3.82,1,7.23,7.23,0,0,0,5-1.73,6.17,6.17,0,0,0,1.91-4.83,7.46,7.46,0,0,0-.85-3.56,6.74,6.74,0,0,0-2.32-2.53,5.92,5.92,0,0,0-3.3-.94,2.31,2.31,0,0,1-1.72-.71,2.38,2.38,0,0,1-.68-1.74,2.33,2.33,0,0,1,.68-1.73,2.36,2.36,0,0,1,1.72-.68,5.24,5.24,0,0,0,2.55-.68,6.07,6.07,0,0,0,2-1.84,4.55,4.55,0,0,0,.8-2.62,4.6,4.6,0,0,0-1.51-3.5,5.46,5.46,0,0,0-3.87-1.41,7.57,7.57,0,0,0-3.28.71,6.26,6.26,0,0,0-2.36,1.88,4.36,4.36,0,0,0-.87,2.65,2.7,2.7,0,0,1-.61,1.81,1.94,1.94,0,0,1-1.56.73,2,2,0,0,1-1.53-.68,2.41,2.41,0,0,1-.64-1.72,8.74,8.74,0,0,1,1.42-4.91,9.83,9.83,0,0,1,3.87-3.42,11.9,11.9,0,0,1,5.47-1.25,10.46,10.46,0,0,1,5,1.2,9.29,9.29,0,0,1,3.54,3.26,8.49,8.49,0,0,1,1.3,4.65,6.34,6.34,0,0,1-.83,3.25,8.46,8.46,0,0,1-2.1,2.43,13.12,13.12,0,0,1-2.69,1.68,11.23,11.23,0,0,1,4.06,2.28,8.85,8.85,0,0,1,2.29,3.33,11.24,11.24,0,0,1,.73,4.11,9.94,9.94,0,0,1-1.56,5.49,11,11,0,0,1-4.15,3.82A11.85,11.85,0,0,1,2240.58,454.06Z"/><text class="cls-15" transform="translate(2391.87 144.81)">Send a message</text><text class="cls-15" transform="translate(2391.4 319.61)">Send <tspan class="cls-16" x="147.71" y="0">y</tspan><tspan x="177.25" y="0">our g</tspan><tspan class="cls-17" x="311.08" y="0">r</tspan><tspan x="331.37" y="0">oup number</tspan></text><text class="cls-15" transform="translate(2399.98 492.48)">Use</text></svg>